<svg xmlns="http://www.w3.org/2000/svg" version="1.1" xmlns:xlink="http://www.w3.org/1999/xlink" xmlns:svgjs="http://svgjs.dev/svgjs" width="2000" height="434" viewBox="0 0 2000 434"><g transform="matrix(1,0,0,1,-1.2121212121212466,0.9791197417600301)"><svg viewBox="0 0 396 86" data-background-color="#ffffff" preserveAspectRatio="xMidYMid meet" height="434" width="2000" xmlns="http://www.w3.org/2000/svg" xmlns:xlink="http://www.w3.org/1999/xlink"><g id="tight-bounds" transform="matrix(1,0,0,1,0.2400000000000091,-0.1940191193349392)"><svg viewBox="0 0 395.52 86.38803823866986" height="86.38803823866986" width="395.52"><g><svg viewBox="0 0 549.7344960967505 120.07100695267494" height="86.38803823866986" width="395.52"><g></g><g transform="matrix(1,0,0,1,154.21449609675057,0.29868409689719755)"><svg viewBox="0 0 395.52 119.47363875888054" height="119.47363875888054" width="395.52"><g id="textblocktransform"><svg viewBox="0 0 395.52 119.47363875888054" height="119.47363875888054" width="395.52" id="textblock"><g><svg viewBox="0 0 395.52 71.40220501444726" height="71.40220501444726" width="395.52"><g transform="matrix(1,0,0,1,0,0)"><svg width="395.52" viewBox="3.86 -32.03 232.86999999999998 42.040850697216996" height="71.40220501444726" data-palette-color="url(#93a70ad8-7257-4fe3-b186-5cd14e415c86)"></svg></g></svg></g><g transform="matrix(1,0,0,1,0,88.25855196543792)"><svg viewBox="0 0 232.209792 31.215086793442623" height="31.215086793442623" width="232.209792"><g transform="matrix(1,0,0,1,0,0)"><svg width="232.209792" viewBox="0.8 -33.9 365.96 49.2" height="31.215086793442623" data-palette-color="url(#df5af89b-3e5d-438d-b7a2-612953ff2283)"></svg></g></svg></g></svg></g></svg></g><g transform="matrix(1,0,0,1,0,0.29868409689720465)"><svg viewBox="0 0 114.06267765949083 119.47363875888053" height="119.47363875888053" width="114.06267765949083"><g><svg xmlns="http://www.w3.org/2000/svg" xml:space="preserve" version="1.0" viewBox="0 0 95.471 100" id="icon-0" width="114.06267765949083" height="119.47363875888053" x="0" y="0" class="icon-icon-0" data-fill-palette-color="accent"><path d="M47.735 0c-0.083 2.825-1.738 13.412-19.799 30.934C10.554 47.797 2.439 49.824 0 50c2.439 0.178 10.554 2.204 27.936 19.066C45.997 86.589 47.652 97.177 47.735 100c0.083-2.823 1.739-13.411 19.798-30.934C84.917 52.204 93.031 50.178 95.471 50c-2.439-0.176-10.554-2.203-27.938-19.066C49.475 13.412 47.819 2.825 47.735 0" fill="#001f3f" data-fill-palette-color="accent"></path></svg></g></svg></g></svg></g><defs></defs><mask id="155a4648-c2ab-427f-95a5-3eb58a82baa2"><g id="SvgjsG2212"><svg viewBox="0 0 395.52 86.38803823866986" height="86.38803823866986" width="395.52"><g><svg viewBox="0 0 549.7344960967505 120.07100695267494" height="86.38803823866986" width="395.52"><g><rect width="6.439124535278429" height="120.07100695267494" x="130.91902461048147" y="0" fill="white" opacity="1" stroke-width="0" stroke="transparent" fill-opacity="1" class="rect-yte-0" rx="1%" id="SvgjsRect2211" data-palette-color="url(#93a70ad8-7257-4fe3-b186-5cd14e415c86)"></rect></g><g transform="matrix(1,0,0,1,154.21449609675057,0.29868409689719755)"><svg viewBox="0 0 395.52 119.47363875888054" height="119.47363875888054" width="395.52"><g id="SvgjsG2210"><svg viewBox="0 0 395.52 119.47363875888054" height="119.47363875888054" width="395.52" id="SvgjsSvg2209"><g><svg viewBox="0 0 395.52 71.40220501444726" height="71.40220501444726" width="395.52"><g transform="matrix(1,0,0,1,0,0)"><svg width="395.52" viewBox="3.86 -32.03 232.86999999999998 42.040850697216996" height="71.40220501444726" data-palette-color="url(#93a70ad8-7257-4fe3-b186-5cd14e415c86)"><path d="M23.02-29.52Q24.02-29.52 24.44-29.15 24.85-28.78 24.85-27.93L24.85-27.93 24.85-22.31Q24.85-21.46 24.44-21.09 24.02-20.73 23.02-20.73L23.02-20.73Q22.09-20.73 21.75-21.36L21.75-21.36Q20.58-23.58 18.46-24.74 16.33-25.9 13.62-25.9L13.62-25.9Q10.94-25.9 9.46-24.66 7.98-23.41 7.98-21.31L7.98-21.31Q7.98-20.31 8.5-19.63 9.01-18.95 9.96-18.46L9.96-18.46Q10.82-18.02 11.96-17.74 13.11-17.46 15.04-17.09L15.04-17.09Q17.14-16.67 18.37-16.39 19.6-16.11 20.8-15.63L20.8-15.63Q23.24-14.62 24.62-12.83 26-11.04 26-7.98L26-7.98Q26-5.44 24.8-3.53 23.61-1.61 21.28-0.54 18.95 0.54 15.67 0.54L15.67 0.54Q13.23 0.54 11.15-0.35 9.06-1.25 7.52-2.95L7.52-2.95 7.52-1.05Q7.52-0.2 7.1 0.17 6.69 0.54 5.69 0.54L5.69 0.54Q4.69 0.54 4.27 0.17 3.86-0.2 3.86-1.05L3.86-1.05 3.86-8.37Q3.86-9.23 4.27-9.59 4.69-9.96 5.69-9.96L5.69-9.96Q6.74-9.96 7.1-8.94L7.1-8.94Q8.11-6.1 10.29-4.59 12.48-3.08 15.67-3.08L15.67-3.08Q18.8-3.08 20.47-4.42 22.14-5.76 22.14-7.98L22.14-7.98Q22.14-9.52 21.37-10.49 20.61-11.45 19.14-12.08L19.14-12.08Q18.21-12.5 17.11-12.76 16.02-13.01 14.11-13.4L14.11-13.4Q12.11-13.79 10.75-14.14 9.4-14.48 8.25-14.99L8.25-14.99Q6.3-15.87 5.21-17.37 4.13-18.87 4.13-21.31L4.13-21.31Q4.13-23.83 5.33-25.68 6.54-27.54 8.7-28.53 10.86-29.52 13.62-29.52L13.62-29.52Q15.77-29.52 17.77-28.69 19.78-27.86 21.19-26.44L21.19-26.44 21.19-27.93Q21.19-28.78 21.61-29.15 22.02-29.52 23.02-29.52L23.02-29.52ZM41.16-29.52Q42.16-29.52 42.58-29.15 42.99-28.78 42.99-27.93L42.99-27.93 42.99-20.61 53.02-20.61Q53.85-20.61 54.21-20.23 54.56-19.85 54.56-18.95L54.56-18.95Q54.56-18.04 54.21-17.66 53.85-17.29 53.02-17.29L53.02-17.29 42.99-17.29 42.99-8.4Q42.99-5.62 43.96-4.32 44.92-3.03 47.31-3.03L47.31-3.03Q48.95-3.03 50.75-3.69 52.56-4.35 54.25-5.44L54.25-5.44Q54.59-5.69 55-5.69L55-5.69Q55.83-5.69 56.42-4.57L56.42-4.57Q56.74-3.93 56.74-3.47L56.74-3.47Q56.74-2.69 55.93-2.2L55.93-2.2Q54.03-1 51.68-0.23 49.34 0.54 47.31 0.54L47.31 0.54Q43.16 0.54 41.25-1.62 39.33-3.78 39.33-8.08L39.33-8.08 39.33-17.29 34.37-17.29Q33.54-17.29 33.19-17.66 32.83-18.04 32.83-18.95L32.83-18.95Q32.83-19.85 33.19-20.23 33.54-20.61 34.37-20.61L34.37-20.61 39.33-20.61 39.33-27.93Q39.33-28.78 39.74-29.15 40.16-29.52 41.16-29.52L41.16-29.52ZM87.18-22.56Q88.01-22.56 88.36-22.18 88.72-21.8 88.72-20.9L88.72-20.9Q88.72-20 88.36-19.62 88.01-19.24 87.18-19.24L87.18-19.24 85.66-19.24 75.68 1.22Q74.09 4.47 72.58 6.32 71.06 8.18 69.17 9.05 67.28 9.91 64.57 10.01L64.57 10.01Q63.72 10.03 63.25 9.58 62.79 9.13 62.79 7.98L62.79 7.98Q62.79 6.4 64.08 6.32L64.08 6.32Q66.43 6.2 67.81 5.54 69.18 4.88 70.34 3.28 71.5 1.68 73.19-1.71L73.19-1.71 64.25-19.24 62.71-19.24Q61.88-19.24 61.53-19.62 61.18-20 61.18-20.9L61.18-20.9Q61.18-21.8 61.53-22.18 61.88-22.56 62.71-22.56L62.71-22.56 71.36-22.56Q72.19-22.56 72.54-22.18 72.9-21.8 72.9-20.9L72.9-20.9Q72.9-20 72.54-19.62 72.19-19.24 71.36-19.24L71.36-19.24 68.23-19.24 75.12-5.52 81.68-19.24 79.51-19.24Q78.68-19.24 78.33-19.62 77.97-20 77.97-20.9L77.97-20.9Q77.97-21.8 78.33-22.18 78.68-22.56 79.51-22.56L79.51-22.56 87.18-22.56ZM105.56-32.03Q106.39-32.03 106.74-31.65 107.1-31.27 107.1-30.37L107.1-30.37 107.1-3.32 114.93-3.32Q115.76-3.32 116.12-2.94 116.47-2.56 116.47-1.66L116.47-1.66Q116.47-0.76 116.12-0.38 115.76 0 114.93 0L114.93 0 95.79 0Q94.96 0 94.61-0.38 94.26-0.76 94.26-1.66L94.26-1.66Q94.26-2.56 94.61-2.94 94.96-3.32 95.79-3.32L95.79-3.32 103.43-3.32 103.43-28.71 96.77-28.71Q95.94-28.71 95.59-29.09 95.23-29.47 95.23-30.37L95.23-30.37Q95.23-31.27 95.59-31.65 95.94-32.03 96.77-32.03L96.77-32.03 105.56-32.03ZM135.12-23.1Q138.66-23.1 141.16-21.67 143.67-20.24 145.01-17.71 146.35-15.19 146.55-11.89L146.55-11.89Q146.55-11.06 146.19-10.72 145.84-10.38 145.01-10.38L145.01-10.38 127.33-10.38Q127.5-6.74 129.49-4.87 131.48-3 135.12-3L135.12-3Q137.37-3 139.57-3.58 141.76-4.15 143.42-5.1L143.42-5.1Q143.84-5.32 144.18-5.32L144.18-5.32Q145.03-5.32 145.57-4.03L145.57-4.03Q145.79-3.52 145.79-3.1L145.79-3.1Q145.79-2.12 144.72-1.59L144.72-1.59Q142.84-0.63 140.27-0.05 137.71 0.54 135.12 0.54L135.12 0.54Q131.44 0.54 128.82-0.88 126.21-2.29 124.84-4.96 123.48-7.62 123.48-11.28L123.48-11.28Q123.48-14.77 124.97-17.46 126.45-20.14 129.09-21.62 131.73-23.1 135.12-23.1L135.12-23.1ZM135.12-19.56Q132.12-19.56 130.15-18.03 128.19-16.5 127.58-13.79L127.58-13.79 142.49-13.79Q141.98-16.6 140.14-18.08 138.3-19.56 135.12-19.56L135.12-19.56ZM176.38-28.98Q177.21-28.98 177.56-28.6 177.92-28.22 177.92-27.32L177.92-27.32Q177.92-26.42 177.56-26.04 177.21-25.66 176.38-25.66L176.38-25.66 174.62-25.66 174.62-3.32 176.38-3.32Q177.21-3.32 177.56-2.94 177.92-2.56 177.92-1.66L177.92-1.66Q177.92-0.76 177.56-0.38 177.21 0 176.38 0L176.38 0 168.71 0Q167.88 0 167.53-0.38 167.18-0.76 167.18-1.66L167.18-1.66Q167.18-2.56 167.53-2.94 167.88-3.32 168.71-3.32L168.71-3.32 170.96-3.32 170.96-13.28 158.8-13.28 158.8-3.32 161.05-3.32Q161.88-3.32 162.23-2.94 162.59-2.56 162.59-1.66L162.59-1.66Q162.59-0.76 162.23-0.38 161.88 0 161.05 0L161.05 0 153.38 0Q152.55 0 152.2-0.38 151.84-0.76 151.84-1.66L151.84-1.66Q151.84-2.56 152.2-2.94 152.55-3.32 153.38-3.32L153.38-3.32 155.14-3.32 155.14-25.66 153.38-25.66Q152.55-25.66 152.2-26.04 151.84-26.42 151.84-27.32L151.84-27.32Q151.84-28.22 152.2-28.6 152.55-28.98 153.38-28.98L153.38-28.98 161.05-28.98Q161.88-28.98 162.23-28.6 162.59-28.22 162.59-27.32L162.59-27.32Q162.59-26.42 162.23-26.04 161.88-25.66 161.05-25.66L161.05-25.66 158.8-25.66 158.8-16.6 170.96-16.6 170.96-25.66 168.71-25.66Q167.88-25.66 167.53-26.04 167.18-26.42 167.18-27.32L167.18-27.32Q167.18-28.22 167.53-28.6 167.88-28.98 168.71-28.98L168.71-28.98 176.38-28.98ZM202.72-22.56Q203.55-22.56 203.9-22.18 204.26-21.8 204.26-20.9L204.26-20.9 204.26-3.32 206.26-3.32Q207.09-3.32 207.44-2.94 207.8-2.56 207.8-1.66L207.8-1.66Q207.8-0.76 207.44-0.38 207.09 0 206.26 0L206.26 0 202.38 0Q201.55 0 201.19-0.37 200.84-0.73 200.84-1.64L200.84-1.64 200.84-4.59Q199.23-2.1 197.07-0.78 194.91 0.54 192.42 0.54L192.42 0.54Q190.19 0.54 188.56-0.43 186.92-1.39 186.04-3.2 185.17-5 185.17-7.42L185.17-7.42 185.17-19.24 183.16-19.24Q182.33-19.24 181.98-19.62 181.63-20 181.63-20.9L181.63-20.9Q181.63-21.8 181.98-22.18 182.33-22.56 183.16-22.56L183.16-22.56 187.29-22.56Q188.12-22.56 188.47-22.18 188.83-21.8 188.83-20.9L188.83-20.9 188.83-7.79Q188.83-5.62 189.83-4.35 190.83-3.08 192.78-3.08L192.78-3.08Q194.86-3.08 196.65-4.27 198.45-5.47 199.52-7.57 200.6-9.67 200.6-12.26L200.6-12.26 200.6-19.24 197.13-19.24Q196.3-19.24 195.94-19.62 195.59-20 195.59-20.9L195.59-20.9Q195.59-21.8 195.94-22.18 196.3-22.56 197.13-22.56L197.13-22.56 202.72-22.56ZM216.9-32.03Q217.73-32.03 218.09-31.65 218.44-31.27 218.44-30.37L218.44-30.37 218.44-19.07Q221.59-23.1 226.18-23.1L226.18-23.1Q229.21-23.1 231.6-21.67 233.99-20.24 235.36-17.57 236.73-14.89 236.73-11.28L236.73-11.28Q236.73-7.67 235.36-4.99 233.99-2.32 231.6-0.89 229.21 0.54 226.18 0.54L226.18 0.54Q223.79 0.54 221.76-0.54 219.73-1.61 218.2-3.61L218.2-3.61 218.2-1.66Q218.2-0.76 217.84-0.38 217.49 0 216.66 0L216.66 0 212.78 0Q211.95 0 211.59-0.38 211.24-0.76 211.24-1.66L211.24-1.66Q211.24-2.56 211.59-2.94 211.95-3.32 212.78-3.32L212.78-3.32 214.78-3.32 214.78-28.71 212.29-28.71Q211.46-28.71 211.1-29.09 210.75-29.47 210.75-30.37L210.75-30.37Q210.75-31.27 211.1-31.65 211.46-32.03 212.29-32.03L212.29-32.03 216.9-32.03ZM225.93-19.48Q223.76-19.48 222.07-18.51 220.37-17.53 219.4-15.67 218.44-13.82 218.44-11.28L218.44-11.28Q218.44-8.74 219.4-6.88 220.37-5.03 222.07-4.05 223.76-3.08 225.93-3.08L225.93-3.08Q228.11-3.08 229.67-4.11 231.23-5.15 232.05-7.01 232.87-8.86 232.87-11.28L232.87-11.28Q232.87-13.7 232.05-15.55 231.23-17.41 229.67-18.44 228.11-19.48 225.93-19.48L225.93-19.48Z" opacity="1" transform="matrix(1,0,0,1,0,0)" fill="white" class="wordmark-text-0" id="SvgjsPath2208"></path></svg></g></svg></g><g transform="matrix(1,0,0,1,0,88.25855196543792)"><svg viewBox="0 0 232.209792 31.215086793442623" height="31.215086793442623" width="232.209792"><g transform="matrix(1,0,0,1,0,0)"><svg width="232.209792" viewBox="0.8 -33.9 365.96 49.2" height="31.215086793442623" data-palette-color="url(#df5af89b-3e5d-438d-b7a2-612953ff2283)"><path d="M13.35 2.3L13.35 2.3Q9.35 2.3 6.55 1.03 3.75-0.25 2.27-2.5 0.8-4.75 0.8-7.65L0.8-7.65Q0.8-10.45 2.25-13.63 3.7-16.8 6.75-20.1L6.75-20.1Q9-22.55 11.8-24.68 14.6-26.8 17.53-28.55 20.45-30.3 23.28-31.5 26.1-32.7 28.45-33.25L28.45-33.25Q29.75-33.55 31.08-33.73 32.4-33.9 33.65-33.9L33.65-33.9Q35.8-33.9 37.6-33.35 39.4-32.8 40.5-31.6 41.6-30.4 41.6-28.45L41.6-28.45Q41.6-27.35 41.23-26.3 40.85-25.25 40.6-24.7L40.6-24.7Q40.45-24.4 40.3-24.4L40.3-24.4Q40.2-24.4 40.15-24.58 40.1-24.75 40.2-24.95L40.2-24.95Q40.65-25.95 40.65-26.7L40.65-26.7Q40.65-27.95 39.58-28.53 38.5-29.1 36.65-29.1L36.65-29.1Q34.55-29.1 31.7-28.45 28.85-27.8 25.68-26.65 22.5-25.5 19.35-24 16.2-22.5 13.43-20.73 10.65-18.95 8.65-17.1L8.65-17.1Q5.35-14.05 3.83-11.38 2.3-8.7 2.3-6.6L2.3-6.6Q2.3-3.45 5.25-1.65 8.2 0.15 13.15 0.15L13.15 0.15Q14.45 0.15 15.85 0 17.25-0.15 18.75-0.4L18.75-0.4Q22.3-1.05 25.98-2.33 29.65-3.6 33.02-5.43 36.4-7.25 39.18-9.47 41.95-11.7 43.7-14.2L43.7-14.2Q44.2-14.85 44.3-14.85L44.3-14.85Q44.35-14.85 44.35-14.7L44.35-14.7Q44.35-14.6 44.35-14.48 44.35-14.35 44.25-14.1L44.25-14.1Q43.75-12.65 42.1-10.85 40.45-9.05 37.95-7.18 35.45-5.3 32.4-3.55 29.35-1.8 26-0.43 22.65 0.95 19.3 1.65L19.3 1.65Q16.2 2.3 13.35 2.3ZM10.25-14.1L10.25-14.1Q9.7-14.1 9.35-14.3L9.35-14.3Q9.15-14.4 8.95-14.68 8.75-14.95 8.75-15.35L8.75-15.35Q8.75-15.95 9.63-16.65 10.5-17.35 13.2-17.85L13.2-17.85Q14.1-18 15.2-18.1 16.3-18.2 17.5-18.2L17.5-18.2Q19.6-18.2 21.78-17.93 23.95-17.65 25.73-17.05 27.5-16.45 28.35-15.5L28.35-15.5Q28.65-15.15 28.65-14.8L28.65-14.8Q28.65-14.4 28.25-14.4L28.25-14.4Q27.95-14.4 27.55-14.65L27.55-14.65Q26.7-15.25 25.23-15.55 23.75-15.85 21.85-15.85L21.85-15.85Q18.5-15.85 14.5-15L14.5-15Q13.25-14.75 12.15-14.43 11.05-14.1 10.25-14.1ZM40.55 0.25L40.55 0.25Q38.55 0.25 37.75-0.73 36.95-1.7 36.95-3L36.95-3Q36.95-4.25 37.42-5.65 37.9-7.05 38.5-8.3L38.5-8.3Q37.85-7.6 37.25-7.03 36.65-6.45 36.25-6.1L36.25-6.1Q36.05-5.95 35.85-5.95L35.85-5.95Q35.6-5.95 35.6-6.2L35.6-6.2Q35.6-6.45 35.9-6.65L35.9-6.65Q36.95-7.55 38.35-9.1 39.75-10.65 40.95-12.25L40.95-12.25Q41.95-13.55 43.35-15.5 44.75-17.45 46.2-19.63 47.65-21.8 48.7-23.6L48.7-23.6Q48.85-23.9 49.02-24.35 49.2-24.8 49.2-25.15L49.2-25.15Q49.2-25.65 48.8-25.65L48.8-25.65Q48.7-25.65 48.22-25.45 47.75-25.25 47.3-25.05 46.85-24.85 46.75-24.85L46.75-24.85Q46.35-24.85 46.8-25.3L46.8-25.3Q47.6-25.9 48.82-26.48 50.05-27.05 51.35-27.45 52.65-27.85 53.55-27.85L53.55-27.85Q55.65-27.85 55.65-26.5L55.65-26.5Q55.65-25.8 55-24.65L55-24.65Q54.45-23.75 53.4-22.53 52.35-21.3 51.07-19.93 49.8-18.55 48.6-17.23 47.4-15.9 46.6-14.9L46.6-14.9Q46.4-14.65 45.62-13.6 44.85-12.55 43.87-11.08 42.9-9.6 41.92-7.98 40.95-6.35 40.32-4.88 39.7-3.4 39.7-2.4L39.7-2.4Q39.7-1.05 41-1.05L41-1.05Q41.85-1.05 43.15-1.55L43.15-1.55Q44.4-2 45.77-2.93 47.15-3.85 48.47-4.9 49.8-5.95 50.82-6.9 51.85-7.85 52.35-8.35L52.35-8.35Q52.65-8.65 52.85-8.65L52.85-8.65Q53.05-8.65 53.05-8.4L53.05-8.4Q53.05-8.15 52.8-7.9L52.8-7.9Q52-7.05 50.62-5.7 49.25-4.35 47.57-2.98 45.9-1.6 44.1-0.68 42.3 0.25 40.55 0.25ZM55.5 0.5L55.5 0.5Q53.3 0.5 51.82-0.58 50.35-1.65 50.35-3.7L50.35-3.7Q50.35-5.9 51.4-7.8 52.45-9.7 54.2-11.13 55.95-12.55 58.02-13.35 60.1-14.15 62.15-14.15L62.15-14.15Q64.2-14.15 65.2-13.43 66.2-12.7 66.2-11.65L66.2-11.65Q66.2-10.65 65.27-9.53 64.35-8.4 62.6-7.55L62.6-7.55Q61.5-7.05 60.07-6.68 58.65-6.3 57.6-6.3L57.6-6.3Q56.8-6.3 56.8-6.55L56.8-6.55Q56.8-6.75 57.5-6.75L57.5-6.75Q58.15-6.75 59.52-7.13 60.9-7.5 62.2-8.15L62.2-8.15Q63.65-8.95 64.25-9.75 64.85-10.55 64.85-11.2L64.85-11.2Q64.85-11.8 64.37-12.2 63.9-12.6 63.05-12.6L63.05-12.6Q62.25-12.6 61.25-12.15L61.25-12.15Q59.8-11.5 58.27-10.03 56.75-8.55 55.75-6.8 54.75-5.05 54.75-3.45L54.75-3.45Q54.75-2.35 55.37-1.6 56-0.85 57.25-0.85L57.25-0.85Q58.55-0.85 60.25-1.68 61.95-2.5 63.7-3.73 65.45-4.95 66.95-6.2 68.45-7.45 69.35-8.3L69.35-8.3Q69.65-8.6 69.8-8.6L69.8-8.6Q69.95-8.6 69.95-8.35L69.95-8.35Q69.95-8 69.65-7.75L69.65-7.75Q67.75-6 65.52-4.1 63.3-2.2 60.77-0.88 58.25 0.45 55.5 0.5ZM69.74 0L69.74 0Q69.19 0 68.89-0.15L68.89-0.15Q69.59-1.15 70.22-2.8 70.84-4.45 71.34-6.15 71.84-7.85 72.12-9.08 72.39-10.3 72.39-10.4L72.39-10.4 70.29-8.3Q69.64-7.65 68.89-6.95 68.14-6.25 67.39-5.65L67.39-5.65Q67.19-5.5 67.02-5.38 66.84-5.25 66.69-5.25L66.69-5.25Q66.49-5.25 66.49-5.45L66.49-5.45Q66.49-5.75 66.94-6.15L66.94-6.15Q68.34-7.4 70.02-8.95 71.69-10.5 72.49-12.2L72.49-12.2Q72.74-12.8 72.74-13.3L72.74-13.3Q72.74-13.95 72.49-14.1L72.49-14.1Q72.29-14.25 72.29-14.5L72.29-14.5Q72.29-14.95 72.74-14.95L72.74-14.95Q73.04-14.95 73.52-14.68 73.99-14.4 74.24-14.15L74.24-14.15Q74.84-13.55 75.02-12.65 75.19-11.75 75.19-10.8L75.19-10.8Q75.19-9.4 74.92-7.65 74.64-5.9 74.14-4.28 73.64-2.65 72.89-1.5L72.89-1.5 72.79-1.35Q73.09-1.55 73.32-1.73 73.54-1.9 73.64-2L73.64-2Q75.14-3.5 76.24-5.38 77.34-7.25 78.29-9.22 79.24-11.2 80.24-12.95 81.24-14.7 82.54-15.95L82.54-15.95Q83.29-16.7 84.49-16.7L84.49-16.7Q85.14-16.7 85.79-16.32 86.44-15.95 86.74-15.2L86.74-15.2Q86.84-15 86.67-14.95 86.49-14.9 86.39-15.1L86.39-15.1Q86.09-15.85 85.44-15.85L85.44-15.85Q84.79-15.85 83.74-14.9L83.74-14.9Q81.94-13.15 80.49-10.83 79.04-8.5 77.57-6.13 76.09-3.75 74.14-1.8L74.14-1.8Q73.34-1 72.04-0.5 70.74 0 69.74 0ZM85.09 0.05L85.09 0.05Q83.54 0.05 82.69-0.93 81.84-1.9 81.84-3.45L81.84-3.45Q81.84-4.9 82.62-6.65 83.39-8.4 85.09-10.2L85.09-10.2Q86.84-12.1 89.44-13.28 92.04-14.45 94.39-14.45L94.39-14.45Q96.29-14.45 97.64-13.63 98.99-12.8 99.44-11.55L99.44-11.55Q99.99-11.55 100.82-11.25 101.64-10.95 101.64-10.15L101.64-10.15Q101.64-9.6 101.09-8.9L101.09-8.9Q100.74-8.4 99.87-7.4 98.99-6.4 98.24-5.25L98.24-5.25Q97.64-4.35 97.29-3.58 96.94-2.8 96.94-2.25L96.94-2.25Q96.94-1.5 97.69-1.5L97.69-1.5Q98.54-1.5 100.24-2.45L100.24-2.45Q102.09-3.5 103.79-4.85 105.49-6.2 106.44-7L106.44-7Q106.69-7.2 106.79-7.2L106.79-7.2Q106.99-7.2 106.99-6.95L106.99-6.95Q106.99-6.65 106.74-6.4L106.74-6.4Q106.29-6 104.99-4.9 103.69-3.8 102.02-2.6 100.34-1.4 98.74-0.65L98.74-0.65Q97.94-0.3 97.27-0.13 96.59 0.05 96.04 0.05L96.04 0.05Q94.69 0.05 93.99-0.73 93.29-1.5 93.29-2.75L93.29-2.75Q93.29-3.25 93.44-3.8 93.59-4.35 93.79-4.9L93.79-4.9 94.14-5.75Q92.84-4.15 91.54-3.08 90.24-2 88.94-1.2L88.94-1.2Q87.84-0.55 86.87-0.25 85.89 0.05 85.09 0.05ZM86.64-1.25L86.64-1.25Q87.54-1.25 89.24-2.33 90.94-3.4 93.19-5.65L93.19-5.65Q93.49-5.95 94.32-6.73 95.14-7.5 96.09-8.47 97.04-9.45 97.72-10.43 98.39-11.4 98.39-12.05L98.39-12.05Q98.39-13 96.74-13L96.74-13Q95.29-13 93.27-11.88 91.24-10.75 89.39-8.55L89.39-8.55Q87.49-6.3 86.62-4.67 85.74-3.05 85.74-2.2L85.74-2.2Q85.74-1.25 86.64-1.25ZM109.44 0.85L109.44 0.85Q107.84 0.85 106.99-0.1 106.14-1.05 106.14-2.75L106.14-2.75Q106.14-4.35 106.99-6.5L106.99-6.5 107.09-6.75 106.19-5.9Q105.99-5.7 105.74-5.7L105.74-5.7Q105.49-5.7 105.49-5.9L105.49-5.9Q105.49-6.15 105.84-6.5L105.84-6.5Q107.14-7.65 108.51-8.93 109.89-10.2 110.84-11.35L110.84-11.35Q110.49-11.2 110.09-11.2L110.09-11.2Q109.69-11.2 109.49-11.4L109.49-11.4Q109.14-11.65 109.14-12.3L109.14-12.3Q109.14-12.85 109.66-13.45 110.19-14.05 111.84-14.5L111.84-14.5Q112.19-14.6 112.56-14.65 112.94-14.7 113.29-14.75L113.29-14.75Q114.89-17 116.09-18.93 117.29-20.85 117.99-21.5L117.99-21.5Q118.29-21.85 119.06-22.1 119.84-22.35 120.71-22.5 121.59-22.65 122.09-22.65L122.09-22.65Q123.74-22.65 123.74-22.35L123.74-22.35Q123.74-22.15 122.99-21.4L122.99-21.4Q121.74-20.2 120.06-18.43 118.39-16.65 116.64-14.6L116.64-14.6Q118.09-14.4 119.31-13.85 120.54-13.3 121.09-12.45L121.09-12.45Q121.29-12.2 121.29-11.85L121.29-11.85Q121.29-11.45 121.04-11.45L121.04-11.45Q120.84-11.45 120.59-11.7L120.59-11.7Q119.54-12.75 117.09-12.75L117.09-12.75Q116.59-12.75 116.06-12.7 115.54-12.65 114.99-12.55L114.99-12.55Q113.29-10.35 111.89-8.15 110.49-5.95 109.89-4.05L109.89-4.05Q109.59-3.15 109.59-2.4L109.59-2.4Q109.59-1.65 109.94-1.18 110.29-0.7 110.99-0.7L110.99-0.7Q111.44-0.7 112.09-0.95L112.09-0.95Q113.04-1.3 114.29-2.13 115.54-2.95 116.81-4 118.09-5.05 119.21-6.05 120.34-7.05 121.09-7.75 121.84-8.45 121.94-8.55L121.94-8.55Q122.09-8.7 122.19-8.7L122.19-8.7Q122.39-8.7 122.39-8.4L122.39-8.4Q122.39-8.05 122.09-7.75L122.09-7.75Q121.59-7.25 120.56-6.25 119.54-5.25 118.21-4.03 116.89-2.8 115.39-1.7 113.89-0.6 112.36 0.13 110.84 0.85 109.44 0.85ZM124.89 0.5L124.89 0.5Q122.69 0.5 121.21-0.58 119.74-1.65 119.74-3.7L119.74-3.7Q119.74-5.9 120.79-7.8 121.84-9.7 123.59-11.13 125.34-12.55 127.41-13.35 129.49-14.15 131.54-14.15L131.54-14.15Q133.59-14.15 134.59-13.43 135.59-12.7 135.59-11.65L135.59-11.65Q135.59-10.65 134.66-9.53 133.74-8.4 131.99-7.55L131.99-7.55Q130.89-7.05 129.46-6.68 128.04-6.3 126.99-6.3L126.99-6.3Q126.19-6.3 126.19-6.55L126.19-6.55Q126.19-6.75 126.89-6.75L126.89-6.75Q127.54-6.75 128.91-7.13 130.29-7.5 131.59-8.15L131.59-8.15Q133.04-8.95 133.64-9.75 134.24-10.55 134.24-11.2L134.24-11.2Q134.24-11.8 133.76-12.2 133.29-12.6 132.44-12.6L132.44-12.6Q131.64-12.6 130.64-12.15L130.64-12.15Q129.19-11.5 127.66-10.03 126.14-8.55 125.14-6.8 124.14-5.05 124.14-3.45L124.14-3.45Q124.14-2.35 124.76-1.6 125.39-0.85 126.64-0.85L126.64-0.85Q127.94-0.85 129.64-1.68 131.34-2.5 133.09-3.73 134.84-4.95 136.34-6.2 137.84-7.45 138.74-8.3L138.74-8.3Q139.04-8.6 139.19-8.6L139.19-8.6Q139.34-8.6 139.34-8.35L139.34-8.35Q139.34-8 139.04-7.75L139.04-7.75Q137.14-6 134.91-4.1 132.69-2.2 130.16-0.88 127.64 0.45 124.89 0.5ZM167.13 15.3L167.13 15.3Q164.68 15.3 162.36 14.58 160.03 13.85 158.18 12.28 156.33 10.7 155.23 8.15 154.13 5.6 154.13 2L154.13 2 154.13 1.8Q154.13 1.25 154.38 1.25L154.38 1.25Q154.73 1.25 154.83 1.9L154.83 1.9Q155.33 5.4 156.81 8.05 158.28 10.7 160.46 12.2 162.63 13.7 165.18 13.7L165.18 13.7Q167.88 13.7 170.33 12.2 172.78 10.7 174.98 8.3 177.18 5.9 179.11 3.23 181.03 0.55 182.58-1.85L182.58-1.85Q188.48-10.8 190.73-17.57 192.98-24.35 192.73-29.05L192.73-29.05Q191.93-26.3 190.33-23.05 188.73-19.8 186.68-16.57 184.63-13.35 182.48-10.65L182.48-10.65Q181.78-9.8 180.51-8.35 179.23-6.9 177.63-5.3 176.03-3.7 174.33-2.25 172.63-0.8 170.98 0.1 169.33 1 168.03 1L168.03 1Q167.88 1 167.73 1 167.58 1 167.43 0.95L167.43 0.95Q166.23 0.65 166.23-0.95L166.23-0.95Q166.23-2.25 166.88-4.1 167.53-5.95 168.61-8.15 169.68-10.35 170.93-12.63 172.18-14.9 173.38-16.95L173.38-16.95Q174.08-18.15 175.06-19.8 176.03-21.45 176.76-23.25 177.48-25.05 177.48-26.6L177.48-26.6Q177.48-28.2 176.33-29.23 175.18-30.25 172.23-30.25L172.23-30.25Q170.43-30.25 168.36-29.93 166.28-29.6 164.26-29.1 162.23-28.6 160.53-28.1 158.83-27.6 157.78-27.25L157.78-27.25Q155.23-26.35 153.41-25.33 151.58-24.3 151.58-23.3L151.58-23.3Q151.58-22.6 152.48-22L152.48-22 152.58-21.9Q152.58-21.85 152.38-21.85L152.38-21.85Q152.08-21.85 151.93-21.95L151.93-21.95Q150.83-22.7 150.83-24.15L150.83-24.15Q150.83-25.25 151.58-26.45 152.33-27.65 153.88-28.55L153.88-28.55Q156.48-30.05 159.86-31.13 163.23-32.2 166.71-32.8 170.18-33.4 173.03-33.4L173.03-33.4Q177.18-33.4 178.81-32.15 180.43-30.9 180.43-28.85L180.43-28.85Q180.43-27.05 179.48-24.85 178.53-22.65 177.18-20.35 175.83-18.05 174.63-16L174.63-16Q173.53-14.05 172.31-11.95 171.08-9.85 170.01-7.85 168.93-5.85 168.28-4.2 167.63-2.55 167.63-1.5L167.63-1.5Q167.63-0.85 167.93-0.45 168.23-0.05 168.93-0.05L168.93-0.05Q169.93-0.05 171.43-1.07 172.93-2.1 174.58-3.7 176.23-5.3 177.78-7.03 179.33-8.75 180.48-10.18 181.63-11.6 182.08-12.25L182.08-12.25Q185.58-17.3 188.26-21.9 190.93-26.5 192.08-30.35L192.08-30.35Q192.43-31.5 192.83-31.6L192.83-31.6Q193.03-31.7 193.13-31.7L193.13-31.7Q193.38-31.7 193.53-31.3L193.53-31.3Q194.03-29.95 194.26-28.33 194.48-26.7 194.48-24.85L194.48-24.85Q194.48-21.55 193.81-17.85 193.13-14.15 191.96-10.43 190.78-6.7 189.23-3.33 187.68 0.05 185.88 2.65L185.88 2.65Q183.48 6.15 180.46 9.03 177.43 11.9 174.06 13.6 170.68 15.3 167.13 15.3ZM197.73 0.45L197.73 0.45Q195.78 0.45 194.8-0.53 193.83-1.5 193.83-3.05L193.83-3.05Q193.83-4 194.08-4.9 194.33-5.8 194.63-6.5L194.63-6.5Q194.28-6.15 193.95-5.88 193.63-5.6 193.43-5.45L193.43-5.45Q193.23-5.3 193.08-5.3L193.08-5.3Q192.88-5.3 192.88-5.55L192.88-5.55Q192.88-5.9 193.38-6.35L193.38-6.35Q195.13-7.8 196.13-8.93 197.13-10.05 198.23-11L198.23-11Q200.08-12.6 202.18-13.5 204.28-14.4 206.38-14.4L206.38-14.4Q208.58-14.4 209.83-13.35 211.08-12.3 211.08-10.25L211.08-10.25Q211.08-9.1 210.4-7.6 209.73-6.1 208.28-4.5L208.28-4.5Q207.68-3.85 206.93-3.23 206.18-2.6 205.63-2.3L205.63-2.3Q208.08-2.55 210.23-4.03 212.38-5.5 214.08-6.95L214.08-6.95Q214.33-7.1 214.43-7.1L214.43-7.1Q214.68-7.1 214.68-6.85L214.68-6.85Q214.68-6.65 214.43-6.4L214.43-6.4Q212.28-4.35 209.8-2.95 207.33-1.55 204.33-1.6L204.33-1.6Q202.58-0.65 200.9-0.1 199.23 0.45 197.73 0.45ZM199.98-0.95L199.98-0.95Q200.68-0.95 201.48-1.2 202.28-1.45 203.08-1.85L203.08-1.85Q202.78-1.85 202.5-2.15 202.23-2.45 202.23-2.95L202.23-2.95Q202.23-3.95 202.98-5 203.73-6.05 204.83-6.8 205.93-7.55 206.98-7.55L206.98-7.55Q207.58-7.55 208.1-7.23 208.63-6.9 208.68-6.35L208.68-6.35Q209.53-7.3 209.85-8.4 210.18-9.5 210.18-10.45L210.18-10.45Q210.18-11.75 209.35-12.43 208.53-13.1 207.13-13.1L207.13-13.1Q205.78-13.1 204.15-12.15 202.53-11.2 201.1-9.7 199.68-8.2 198.75-6.45 197.83-4.7 197.83-3.1L197.83-3.1Q197.83-0.95 199.98-0.95ZM228.78 1.95L228.78 1.95Q228.13 1.7 227.5 1.05 226.88 0.4 226.88-1.2L226.88-1.2Q226.88-2.55 227.33-4.03 227.78-5.5 228.48-6.95L228.48-6.95Q227.18-5.3 225.65-3.7 224.13-2.1 222.6-1.07 221.08-0.05 219.78-0.05L219.78-0.05Q218.68-0.05 217.95-0.65 217.23-1.25 217.23-2.5L217.23-2.5Q217.23-3.4 217.58-4.45L217.58-4.45Q217.93-5.5 218.83-6.8 219.73-8.1 220.8-9.38 221.88-10.65 222.68-11.55L222.68-11.55Q223.23-12.2 223.23-12.6L223.23-12.6Q223.23-13.1 222.68-13.1L222.68-13.1Q222.08-13.1 220.98-12.3L220.98-12.3Q219.83-11.45 218.53-10.23 217.23-9 216.08-7.88 214.93-6.75 214.13-6.1L214.13-6.1Q213.98-5.95 213.83-5.95L213.83-5.95Q213.58-5.95 213.58-6.25L213.58-6.25Q213.58-6.5 214.03-6.9L214.03-6.9Q216.23-8.8 217.68-10.38 219.13-11.95 220.53-13.05L220.53-13.05Q221.28-13.65 222.08-13.93 222.88-14.2 223.58-14.2L223.58-14.2Q224.78-14.2 225.58-13.5 226.38-12.8 226.38-11.55L226.38-11.55Q226.38-10.6 225.88-9.55L225.88-9.55Q225.33-8.3 224.4-7.08 223.48-5.85 222.63-4.7L222.63-4.7Q221.98-3.75 221.68-3.15 221.38-2.55 221.38-2.25L221.38-2.25Q221.38-1.85 221.78-1.85L221.78-1.85Q222.18-1.85 222.93-2.3 223.68-2.75 224.48-3.45L224.48-3.45Q225.03-3.95 225.45-4.38 225.88-4.8 226.08-5L226.08-5Q227.23-6.2 228.38-7.58 229.53-8.95 230.38-10.1L230.38-10.1Q231.03-10.95 231.4-11.4 231.78-11.85 232.23-12.35L232.23-12.35Q233.08-13.3 234.03-13.35L234.03-13.35Q234.58-13.35 235.3-13.13 236.03-12.9 236.73-12.25L236.73-12.25Q236.23-11.55 235.25-10.33 234.28-9.1 233.15-7.63 232.03-6.15 231-4.6 229.98-3.05 229.33-1.7 228.68-0.35 228.68 0.65L228.68 0.65Q228.68 1.35 229.08 1.75L229.08 1.75Q229.28 1.95 229.08 1.98 228.88 2 228.78 1.95ZM243.77 0.05L243.77 0.05Q241.62 0.05 240.87-0.78 240.12-1.6 240.12-2.6L240.12-2.6Q240.12-3.9 241.12-5.35L241.12-5.35Q241.72-6.2 242.47-7.28 243.22-8.35 243.87-9.3 244.52-10.25 244.77-10.65L244.77-10.65Q245.12-11.15 245.2-11.33 245.27-11.5 245.27-11.7L245.27-11.7Q245.27-12 244.9-12.28 244.52-12.55 243.67-12.55L243.67-12.55Q243.42-12.55 243.25-12.53 243.07-12.5 242.87-12.5L242.87-12.5Q242.47-12.5 242.42-12.55L242.42-12.55 242.27-12.35Q240.87-10.5 239.27-8.72 237.67-6.95 235.77-5.45L235.77-5.45Q235.57-5.3 235.47-5.3L235.47-5.3Q235.27-5.3 235.27-5.5L235.27-5.5Q235.27-5.9 235.87-6.4L235.87-6.4Q237.42-7.7 238.92-9.33 240.42-10.95 241.62-12.75L241.62-12.75Q241.17-13.05 241.17-13.95L241.17-13.95Q241.17-15.3 242.02-16.85L242.02-16.85Q242.62-17.9 243.35-18.43 244.07-18.95 244.62-18.95L244.62-18.95Q245.67-18.95 245.67-17.7L245.67-17.7Q245.67-16.9 245.07-15.7L245.07-15.7Q244.82-15.1 244.1-14.18 243.37-13.25 242.67-12.85L242.67-12.85Q243.72-13.2 245.35-13.33 246.97-13.45 248.07-13.45L248.07-13.45Q248.72-13.45 249.67-13.08 250.62-12.7 250.62-11.75L250.62-11.75Q250.62-11.1 250.02-10.35L250.02-10.35Q249.87-10.15 249.22-9.4 248.57-8.65 247.8-7.6 247.02-6.55 246.37-5.5L246.37-5.5Q245.72-4.55 245.35-3.75 244.97-2.95 244.97-2.4L244.97-2.4Q244.97-1.6 245.87-1.6L245.87-1.6Q246.92-1.6 248.67-2.6 250.42-3.6 252.45-5.18 254.47-6.75 256.17-8.45L256.17-8.45Q256.37-8.65 256.52-8.65L256.52-8.65Q256.72-8.65 256.72-8.4L256.72-8.4Q256.72-8.1 256.47-7.85L256.47-7.85Q254.72-6.1 252.6-4.28 250.47-2.45 248.2-1.2 245.92 0.05 243.77 0.05ZM279.52 1.65L279.52 1.65Q277.87 1.7 275.87 1.38 273.87 1.05 271.97 0.25 270.07-0.55 268.67-1.85 267.27-3.15 266.77-5.05L266.77-5.05Q268.57-3.45 271.67-2.73 274.77-2 277.97-2L277.97-2Q282.22-2 285.37-2.95L285.37-2.95Q286.27-3.2 287.47-3.78 288.67-4.35 289.82-5.13 290.97-5.9 291.74-6.85 292.52-7.8 292.52-8.8L292.52-8.8Q292.52-9.5 292.07-10.15 291.62-10.8 290.62-11.45L290.62-11.45Q290.02-11.8 288.89-12.23 287.77-12.65 286.47-13.23 285.17-13.8 284.02-14.58 282.87-15.35 282.19-16.43 281.52-17.5 281.67-18.9L281.67-18.9Q281.92-20.95 283.54-22.98 285.17-25 287.64-26.78 290.12-28.55 292.99-29.9 295.87-31.25 298.64-32.02 301.42-32.8 303.57-32.8L303.57-32.8Q305.77-32.8 307.34-31.95 308.92-31.1 308.67-29.05L308.67-29.05Q308.57-28.15 307.44-26.9 306.32-25.65 304.77-24.15 303.22-22.65 301.69-21 300.17-19.35 299.19-17.65 298.22-15.95 298.32-14.35L298.32-14.35Q297.52-15 297.14-15.8 296.77-16.6 296.77-17.45L296.77-17.45Q296.77-18.65 297.27-19.9 297.77-21.15 298.52-22.28 299.27-23.4 299.92-24.2L299.92-24.2Q301.07-25.6 302.52-26.85 303.97-28.1 305.47-29.15L305.47-29.15Q305.02-29.8 303.92-29.8L303.92-29.8Q302.77-29.8 301.34-29.3 299.92-28.8 298.69-28.23 297.47-27.65 296.97-27.35L296.97-27.35Q294.82-26.2 292.64-24.75 290.47-23.3 288.64-21.8 286.82-20.3 285.69-19.03 284.57-17.75 284.47-16.9L284.47-16.9Q284.37-15.85 285.37-15.13 286.37-14.4 287.97-13.8 289.57-13.2 291.12-12.4L291.12-12.4Q293.22-11.35 294.17-10 295.12-8.65 295.12-7.2L295.12-7.2Q295.12-5.4 293.77-3.68 292.42-1.95 290.12-0.8L290.12-0.8Q288.07 0.2 285.84 0.75 283.62 1.3 281.89 1.48 280.17 1.65 279.52 1.65ZM299.97 0.85L299.97 0.85Q298.37 0.85 297.52-0.1 296.67-1.05 296.67-2.75L296.67-2.75Q296.67-4.35 297.52-6.5L297.52-6.5 297.62-6.75 296.72-5.9Q296.52-5.7 296.27-5.7L296.27-5.7Q296.02-5.7 296.02-5.9L296.02-5.9Q296.02-6.15 296.37-6.5L296.37-6.5Q297.67-7.65 299.04-8.93 300.42-10.2 301.37-11.35L301.37-11.35Q301.02-11.2 300.62-11.2L300.62-11.2Q300.22-11.2 300.02-11.4L300.02-11.4Q299.67-11.65 299.67-12.3L299.67-12.3Q299.67-12.85 300.19-13.45 300.72-14.05 302.37-14.5L302.37-14.5Q302.72-14.6 303.09-14.65 303.47-14.7 303.82-14.75L303.82-14.75Q305.42-17 306.62-18.93 307.82-20.85 308.52-21.5L308.52-21.5Q308.82-21.85 309.59-22.1 310.37-22.35 311.24-22.5 312.12-22.65 312.62-22.65L312.62-22.65Q314.27-22.65 314.27-22.35L314.27-22.35Q314.27-22.15 313.52-21.4L313.52-21.4Q312.27-20.2 310.59-18.43 308.92-16.65 307.17-14.6L307.17-14.6Q308.62-14.4 309.84-13.85 311.07-13.3 311.62-12.45L311.62-12.45Q311.82-12.2 311.82-11.85L311.82-11.85Q311.82-11.45 311.57-11.45L311.57-11.45Q311.37-11.45 311.12-11.7L311.12-11.7Q310.07-12.75 307.62-12.75L307.62-12.75Q307.12-12.75 306.59-12.7 306.07-12.65 305.52-12.55L305.52-12.55Q303.82-10.35 302.42-8.15 301.02-5.95 300.42-4.05L300.42-4.05Q300.12-3.15 300.12-2.4L300.12-2.4Q300.12-1.65 300.47-1.18 300.82-0.7 301.52-0.7L301.52-0.7Q301.97-0.7 302.62-0.95L302.62-0.95Q303.57-1.3 304.82-2.13 306.07-2.95 307.34-4 308.62-5.05 309.74-6.05 310.87-7.05 311.62-7.75 312.37-8.45 312.47-8.55L312.47-8.55Q312.62-8.7 312.72-8.7L312.72-8.7Q312.92-8.7 312.92-8.4L312.92-8.4Q312.92-8.05 312.62-7.75L312.62-7.75Q312.12-7.25 311.09-6.25 310.07-5.25 308.74-4.03 307.42-2.8 305.92-1.7 304.42-0.6 302.89 0.13 301.37 0.85 299.97 0.85ZM307.16 13.45L307.16 13.45Q304.76 13.45 302.74 12.73 300.71 12 299.36 10.45L299.36 10.45Q298.01 8.9 297.56 6.3L297.56 6.3Q297.46 5.9 297.76 5.9L297.76 5.9Q297.96 5.9 298.06 6.25L298.06 6.25Q298.61 9.05 300.79 10.8 302.96 12.55 305.76 12.55L305.76 12.55Q308.36 12.55 311.01 11.18 313.66 9.8 316.16 7.43 318.66 5.05 320.86 2.05L320.86 2.05Q323.21-1.15 325.14-4.6 327.06-8.05 328.86-11.55L328.86-11.55Q328.21-10.6 327.51-9.6 326.81-8.6 326.11-7.75L326.11-7.75Q324.76-6.05 323.04-4.28 321.31-2.5 319.61-1.28 317.91-0.05 316.51-0.05L316.51-0.05Q315.41-0.05 314.69-0.65 313.96-1.25 313.96-2.5L313.96-2.5Q313.96-3.6 314.36-4.53 314.76-5.45 315.26-6.25L315.26-6.25Q316.11-7.65 317.31-9.1 318.51-10.55 319.41-11.55L319.41-11.55Q319.96-12.2 319.96-12.6L319.96-12.6Q319.96-13.1 319.41-13.1L319.41-13.1Q318.76-13.1 317.76-12.3L317.76-12.3Q316.56-11.45 315.31-10.28 314.06-9.1 312.96-8.05 311.86-7 311.16-6.4L311.16-6.4Q310.81-6.15 310.66-6.15L310.66-6.15Q310.46-6.15 310.46-6.35L310.46-6.35Q310.46-6.65 310.81-6.95L310.81-6.95Q311.81-7.8 312.94-8.95 314.06-10.1 315.19-11.23 316.31-12.35 317.26-13.05L317.26-13.05Q318.01-13.65 318.81-13.93 319.61-14.2 320.31-14.2L320.31-14.2Q321.51-14.2 322.34-13.5 323.16-12.8 323.16-11.55L323.16-11.55Q323.16-10.6 322.66-9.55L322.66-9.55Q322.06-8.3 321.14-7.08 320.21-5.85 319.36-4.7L319.36-4.7Q318.71-3.75 318.41-3.15 318.11-2.55 318.11-2.3L318.11-2.3Q318.11-1.85 318.51-1.85L318.51-1.85Q318.91-1.85 319.69-2.3 320.46-2.75 321.26-3.45L321.26-3.45Q322.61-4.7 324.24-6.53 325.86-8.35 327.41-10.35 328.96-12.35 330.11-14.05L330.11-14.05Q330.81-15.7 331.61-16.95 332.41-18.2 333.66-18.2L333.66-18.2Q334.36-18.2 334.79-17.8 335.21-17.4 335.21-17L335.21-17Q335.21-16.65 334.91-16.43 334.61-16.2 333.91-16.25L333.91-16.25Q333.36-16.35 332.66-16.05 331.96-15.75 331.21-14.15L331.21-14.15Q330.41-12.35 329.69-9.95 328.96-7.55 327.96-4.8 326.96-2.05 325.34 0.88 323.71 3.8 321.01 6.65L321.01 6.65Q318.36 9.45 314.74 11.45 311.11 13.45 307.16 13.45ZM337.36 0.25L337.36 0.25Q335.36 0.25 334.56-0.73 333.76-1.7 333.76-3L333.76-3Q333.76-4.25 334.24-5.65 334.71-7.05 335.31-8.3L335.31-8.3Q334.66-7.6 334.06-7.03 333.46-6.45 333.06-6.1L333.06-6.1Q332.86-5.95 332.66-5.95L332.66-5.95Q332.41-5.95 332.41-6.2L332.41-6.2Q332.41-6.45 332.71-6.65L332.71-6.65Q333.76-7.55 335.16-9.1 336.56-10.65 337.76-12.25L337.76-12.25Q338.76-13.55 340.16-15.5 341.56-17.45 343.01-19.63 344.46-21.8 345.51-23.6L345.51-23.6Q345.66-23.9 345.84-24.35 346.01-24.8 346.01-25.15L346.01-25.15Q346.01-25.65 345.61-25.65L345.61-25.65Q345.51-25.65 345.04-25.45 344.56-25.25 344.11-25.05 343.66-24.85 343.56-24.85L343.56-24.85Q343.16-24.85 343.61-25.3L343.61-25.3Q344.41-25.9 345.64-26.48 346.86-27.05 348.16-27.45 349.46-27.85 350.36-27.85L350.36-27.85Q352.46-27.85 352.46-26.5L352.46-26.5Q352.46-25.8 351.81-24.65L351.81-24.65Q351.26-23.75 350.21-22.53 349.16-21.3 347.89-19.93 346.61-18.55 345.41-17.23 344.21-15.9 343.41-14.9L343.41-14.9Q343.21-14.65 342.44-13.6 341.66-12.55 340.69-11.08 339.71-9.6 338.74-7.98 337.76-6.35 337.14-4.88 336.51-3.4 336.51-2.4L336.51-2.4Q336.51-1.05 337.81-1.05L337.81-1.05Q338.66-1.05 339.96-1.55L339.96-1.55Q341.21-2 342.59-2.93 343.96-3.85 345.29-4.9 346.61-5.95 347.64-6.9 348.66-7.85 349.16-8.35L349.16-8.35Q349.46-8.65 349.66-8.65L349.66-8.65Q349.86-8.65 349.86-8.4L349.86-8.4Q349.86-8.15 349.61-7.9L349.61-7.9Q348.81-7.05 347.44-5.7 346.06-4.35 344.39-2.98 342.71-1.6 340.91-0.68 339.11 0.25 337.36 0.25ZM352.31 0.5L352.31 0.5Q350.11 0.5 348.63-0.58 347.16-1.65 347.16-3.7L347.16-3.7Q347.16-5.9 348.21-7.8 349.26-9.7 351.01-11.13 352.76-12.55 354.83-13.35 356.91-14.15 358.96-14.15L358.96-14.15Q361.01-14.15 362.01-13.43 363.01-12.7 363.01-11.65L363.01-11.65Q363.01-10.65 362.08-9.53 361.16-8.4 359.41-7.55L359.41-7.55Q358.31-7.05 356.88-6.68 355.46-6.3 354.41-6.3L354.41-6.3Q353.61-6.3 353.61-6.55L353.61-6.55Q353.61-6.75 354.31-6.75L354.31-6.75Q354.96-6.75 356.33-7.13 357.71-7.5 359.01-8.15L359.01-8.15Q360.46-8.95 361.06-9.75 361.66-10.55 361.66-11.2L361.66-11.2Q361.66-11.8 361.18-12.2 360.71-12.6 359.86-12.6L359.86-12.6Q359.06-12.6 358.06-12.15L358.06-12.15Q356.61-11.5 355.08-10.03 353.56-8.55 352.56-6.8 351.56-5.05 351.56-3.45L351.56-3.45Q351.56-2.35 352.18-1.6 352.81-0.85 354.06-0.85L354.06-0.85Q355.36-0.85 357.06-1.68 358.76-2.5 360.51-3.73 362.26-4.95 363.76-6.2 365.26-7.45 366.16-8.3L366.16-8.3Q366.46-8.6 366.61-8.6L366.61-8.6Q366.76-8.6 366.76-8.35L366.76-8.35Q366.76-8 366.46-7.75L366.46-7.75Q364.56-6 362.33-4.1 360.11-2.2 357.58-0.88 355.06 0.45 352.31 0.5Z" opacity="1" transform="matrix(1,0,0,1,0,0)" fill="black" class="slogan-text-1" id="SvgjsPath2207"></path></svg></g></svg></g></svg></g></svg></g><g transform="matrix(1,0,0,1,0,0.29868409689720465)"><svg viewBox="0 0 114.06267765949083 119.47363875888053" height="119.47363875888053" width="114.06267765949083"><g><svg xmlns="http://www.w3.org/2000/svg" xml:space="preserve" version="1.0" viewBox="0 0 95.471 100" id="SvgjsSvg2206" width="114.06267765949083" height="119.47363875888053" x="0" y="0" class="icon-icon-0" data-fill-palette-color="accent"><path d="M47.735 0c-0.083 2.825-1.738 13.412-19.799 30.934C10.554 47.797 2.439 49.824 0 50c2.439 0.178 10.554 2.204 27.936 19.066C45.997 86.589 47.652 97.177 47.735 100c0.083-2.823 1.739-13.411 19.798-30.934C84.917 52.204 93.031 50.178 95.471 50c-2.439-0.176-10.554-2.203-27.938-19.066C49.475 13.412 47.819 2.825 47.735 0" fill="black"></path></svg></g></svg></g></svg></g><defs><mask></mask></defs></svg><rect width="395.52" height="86.38803823866986" fill="black" stroke="none" visibility="hidden"></rect></g></mask><linearGradient x1="0.054" x2="0.941" y1="0.5" y2="0.5" id="93a70ad8-7257-4fe3-b186-5cd14e415c86"><stop stop-color="#0f3054" offset="0"></stop><stop stop-color="#3b8dcb" offset="0.498"></stop><stop stop-color="#0f3054" offset="1"></stop></linearGradient><rect width="395.52" height="86.38803823866986" fill="url(#93a70ad8-7257-4fe3-b186-5cd14e415c86)" mask="url(#155a4648-c2ab-427f-95a5-3eb58a82baa2)" data-fill-palette-color="primary"></rect><mask id="3c554d26-3e2b-4f3d-8c80-84ca54353cf3"><g id="SvgjsG2224"><svg viewBox="0 0 395.52 86.38803823866986" height="86.38803823866986" width="395.52"><g><svg viewBox="0 0 549.7344960967505 120.07100695267494" height="86.38803823866986" width="395.52"><g></g><g transform="matrix(1,0,0,1,154.21449609675057,0.29868409689719755)"><svg viewBox="0 0 395.52 119.47363875888054" height="119.47363875888054" width="395.52"><g id="SvgjsG2223"><svg viewBox="0 0 395.52 119.47363875888054" height="119.47363875888054" width="395.52" id="SvgjsSvg2222"><g><svg viewBox="0 0 395.52 71.40220501444726" height="71.40220501444726" width="395.52"><g transform="matrix(1,0,0,1,0,0)"><svg width="395.52" viewBox="3.86 -32.03 232.86999999999998 42.040850697216996" height="71.40220501444726" data-palette-color="url(#93a70ad8-7257-4fe3-b186-5cd14e415c86)"></svg></g></svg></g><g transform="matrix(1,0,0,1,0,88.25855196543792)"><svg viewBox="0 0 232.209792 31.215086793442623" height="31.215086793442623" width="232.209792"><g transform="matrix(1,0,0,1,0,0)"><svg width="232.209792" viewBox="0.8 -33.9 365.96 49.2" height="31.215086793442623" data-palette-color="url(#df5af89b-3e5d-438d-b7a2-612953ff2283)"><path d="M13.35 2.3L13.35 2.3Q9.35 2.3 6.55 1.03 3.75-0.25 2.27-2.5 0.8-4.75 0.8-7.65L0.8-7.65Q0.8-10.45 2.25-13.63 3.7-16.8 6.75-20.1L6.75-20.1Q9-22.55 11.8-24.68 14.6-26.8 17.53-28.55 20.45-30.3 23.28-31.5 26.1-32.7 28.45-33.25L28.45-33.25Q29.75-33.55 31.08-33.73 32.4-33.9 33.65-33.9L33.65-33.9Q35.8-33.9 37.6-33.35 39.4-32.8 40.5-31.6 41.6-30.4 41.6-28.45L41.6-28.45Q41.6-27.35 41.23-26.3 40.85-25.25 40.6-24.7L40.6-24.7Q40.45-24.4 40.3-24.4L40.3-24.4Q40.2-24.4 40.15-24.58 40.1-24.75 40.2-24.95L40.2-24.95Q40.65-25.95 40.65-26.7L40.65-26.7Q40.65-27.95 39.58-28.53 38.5-29.1 36.65-29.1L36.65-29.1Q34.55-29.1 31.7-28.45 28.85-27.8 25.68-26.65 22.5-25.5 19.35-24 16.2-22.5 13.43-20.73 10.65-18.95 8.65-17.1L8.65-17.1Q5.35-14.05 3.83-11.38 2.3-8.7 2.3-6.6L2.3-6.6Q2.3-3.45 5.25-1.65 8.2 0.15 13.15 0.15L13.15 0.15Q14.45 0.15 15.85 0 17.25-0.15 18.75-0.4L18.75-0.4Q22.3-1.05 25.98-2.33 29.65-3.6 33.02-5.43 36.4-7.25 39.18-9.47 41.95-11.7 43.7-14.2L43.7-14.2Q44.2-14.85 44.3-14.85L44.3-14.85Q44.35-14.85 44.35-14.7L44.35-14.7Q44.35-14.6 44.35-14.48 44.35-14.35 44.25-14.1L44.25-14.1Q43.75-12.65 42.1-10.85 40.45-9.05 37.95-7.18 35.45-5.3 32.4-3.55 29.35-1.8 26-0.43 22.65 0.95 19.3 1.65L19.3 1.65Q16.2 2.3 13.35 2.3ZM10.25-14.1L10.25-14.1Q9.7-14.1 9.35-14.3L9.35-14.3Q9.15-14.4 8.95-14.68 8.75-14.95 8.75-15.35L8.75-15.35Q8.75-15.95 9.63-16.65 10.5-17.35 13.2-17.85L13.2-17.85Q14.1-18 15.2-18.1 16.3-18.2 17.5-18.2L17.5-18.2Q19.6-18.2 21.78-17.93 23.95-17.65 25.73-17.05 27.5-16.45 28.35-15.5L28.35-15.5Q28.65-15.15 28.65-14.8L28.65-14.8Q28.65-14.4 28.25-14.4L28.25-14.4Q27.95-14.4 27.55-14.65L27.55-14.65Q26.7-15.25 25.23-15.55 23.75-15.85 21.85-15.85L21.85-15.85Q18.5-15.85 14.5-15L14.5-15Q13.25-14.75 12.15-14.43 11.05-14.1 10.25-14.1ZM40.55 0.25L40.55 0.25Q38.55 0.25 37.75-0.73 36.95-1.7 36.95-3L36.95-3Q36.95-4.25 37.42-5.65 37.9-7.05 38.5-8.3L38.5-8.3Q37.85-7.6 37.25-7.03 36.65-6.45 36.25-6.1L36.25-6.1Q36.05-5.95 35.85-5.95L35.85-5.95Q35.6-5.95 35.6-6.2L35.6-6.2Q35.6-6.45 35.9-6.65L35.9-6.65Q36.95-7.55 38.35-9.1 39.75-10.65 40.95-12.25L40.95-12.25Q41.95-13.55 43.35-15.5 44.75-17.45 46.2-19.63 47.65-21.8 48.7-23.6L48.7-23.6Q48.85-23.9 49.02-24.35 49.2-24.8 49.2-25.15L49.2-25.15Q49.2-25.65 48.8-25.65L48.8-25.65Q48.7-25.65 48.22-25.45 47.75-25.25 47.3-25.05 46.85-24.85 46.75-24.85L46.75-24.85Q46.35-24.85 46.8-25.3L46.8-25.3Q47.6-25.9 48.82-26.48 50.05-27.05 51.35-27.45 52.65-27.85 53.55-27.85L53.55-27.85Q55.65-27.85 55.65-26.5L55.65-26.5Q55.65-25.8 55-24.65L55-24.65Q54.45-23.75 53.4-22.53 52.35-21.3 51.07-19.93 49.8-18.55 48.6-17.23 47.4-15.9 46.6-14.9L46.6-14.9Q46.4-14.65 45.62-13.6 44.85-12.55 43.87-11.08 42.9-9.6 41.92-7.98 40.95-6.35 40.32-4.88 39.7-3.4 39.7-2.4L39.7-2.4Q39.7-1.05 41-1.05L41-1.05Q41.85-1.05 43.15-1.55L43.15-1.55Q44.4-2 45.77-2.93 47.15-3.85 48.47-4.9 49.8-5.95 50.82-6.9 51.85-7.85 52.35-8.35L52.35-8.35Q52.65-8.65 52.85-8.65L52.85-8.65Q53.05-8.65 53.05-8.4L53.05-8.4Q53.05-8.15 52.8-7.9L52.8-7.9Q52-7.05 50.62-5.7 49.25-4.35 47.57-2.98 45.9-1.6 44.1-0.68 42.3 0.25 40.55 0.25ZM55.5 0.5L55.5 0.5Q53.3 0.5 51.82-0.58 50.35-1.65 50.35-3.7L50.35-3.7Q50.35-5.9 51.4-7.8 52.45-9.7 54.2-11.13 55.95-12.55 58.02-13.35 60.1-14.15 62.15-14.15L62.15-14.15Q64.2-14.15 65.2-13.43 66.2-12.7 66.2-11.65L66.2-11.65Q66.2-10.65 65.27-9.53 64.35-8.4 62.6-7.55L62.6-7.55Q61.5-7.05 60.07-6.68 58.65-6.3 57.6-6.3L57.6-6.3Q56.8-6.3 56.8-6.55L56.8-6.55Q56.8-6.75 57.5-6.75L57.5-6.75Q58.15-6.75 59.52-7.13 60.9-7.5 62.2-8.15L62.2-8.15Q63.65-8.95 64.25-9.75 64.85-10.55 64.85-11.2L64.85-11.2Q64.85-11.8 64.37-12.2 63.9-12.6 63.05-12.6L63.05-12.6Q62.25-12.6 61.25-12.15L61.25-12.15Q59.8-11.5 58.27-10.03 56.75-8.55 55.75-6.8 54.75-5.05 54.75-3.45L54.75-3.45Q54.75-2.35 55.37-1.6 56-0.85 57.25-0.85L57.25-0.85Q58.55-0.85 60.25-1.68 61.95-2.5 63.7-3.73 65.45-4.95 66.95-6.2 68.45-7.45 69.35-8.3L69.35-8.3Q69.65-8.6 69.8-8.6L69.8-8.6Q69.95-8.6 69.95-8.35L69.95-8.35Q69.95-8 69.65-7.75L69.65-7.75Q67.75-6 65.52-4.1 63.3-2.2 60.77-0.88 58.25 0.45 55.5 0.5ZM69.74 0L69.74 0Q69.19 0 68.89-0.15L68.89-0.15Q69.59-1.15 70.22-2.8 70.84-4.45 71.34-6.15 71.84-7.85 72.12-9.08 72.39-10.3 72.39-10.4L72.39-10.4 70.29-8.3Q69.64-7.65 68.89-6.95 68.14-6.25 67.39-5.65L67.39-5.65Q67.19-5.5 67.02-5.38 66.84-5.25 66.69-5.25L66.69-5.25Q66.49-5.25 66.49-5.45L66.49-5.45Q66.49-5.75 66.94-6.15L66.94-6.15Q68.34-7.4 70.02-8.95 71.69-10.5 72.49-12.2L72.49-12.2Q72.74-12.8 72.74-13.3L72.74-13.3Q72.74-13.95 72.49-14.1L72.49-14.1Q72.29-14.25 72.29-14.5L72.29-14.5Q72.29-14.95 72.74-14.95L72.74-14.95Q73.04-14.95 73.52-14.68 73.99-14.4 74.24-14.15L74.24-14.15Q74.84-13.55 75.02-12.65 75.19-11.75 75.19-10.8L75.19-10.8Q75.19-9.4 74.92-7.65 74.64-5.9 74.14-4.28 73.64-2.65 72.89-1.5L72.89-1.5 72.79-1.35Q73.09-1.55 73.32-1.73 73.54-1.9 73.64-2L73.64-2Q75.14-3.5 76.24-5.38 77.34-7.25 78.29-9.22 79.24-11.2 80.24-12.95 81.24-14.7 82.54-15.95L82.54-15.95Q83.29-16.7 84.49-16.7L84.49-16.7Q85.14-16.7 85.79-16.32 86.44-15.95 86.74-15.2L86.74-15.2Q86.84-15 86.67-14.95 86.49-14.9 86.39-15.1L86.39-15.1Q86.09-15.85 85.44-15.85L85.44-15.85Q84.79-15.85 83.74-14.9L83.74-14.9Q81.94-13.15 80.49-10.83 79.04-8.5 77.57-6.13 76.09-3.75 74.14-1.8L74.14-1.8Q73.34-1 72.04-0.5 70.74 0 69.74 0ZM85.09 0.05L85.09 0.05Q83.54 0.05 82.69-0.93 81.84-1.9 81.84-3.45L81.84-3.45Q81.84-4.9 82.62-6.65 83.39-8.4 85.09-10.2L85.09-10.2Q86.84-12.1 89.44-13.28 92.04-14.45 94.39-14.45L94.39-14.45Q96.29-14.45 97.64-13.63 98.99-12.8 99.44-11.55L99.44-11.55Q99.99-11.55 100.82-11.25 101.64-10.95 101.64-10.15L101.64-10.15Q101.64-9.6 101.09-8.9L101.09-8.9Q100.74-8.4 99.87-7.4 98.99-6.4 98.24-5.25L98.24-5.25Q97.64-4.35 97.29-3.58 96.94-2.8 96.94-2.25L96.94-2.25Q96.94-1.5 97.69-1.5L97.69-1.5Q98.54-1.5 100.24-2.45L100.24-2.45Q102.09-3.5 103.79-4.85 105.49-6.2 106.44-7L106.44-7Q106.69-7.2 106.79-7.2L106.79-7.2Q106.99-7.2 106.99-6.95L106.99-6.95Q106.99-6.65 106.74-6.4L106.74-6.4Q106.29-6 104.99-4.9 103.69-3.8 102.02-2.6 100.34-1.4 98.74-0.65L98.74-0.65Q97.94-0.3 97.27-0.13 96.59 0.05 96.04 0.05L96.04 0.05Q94.69 0.05 93.99-0.73 93.29-1.5 93.29-2.75L93.29-2.75Q93.29-3.25 93.44-3.8 93.59-4.35 93.79-4.9L93.79-4.9 94.14-5.75Q92.84-4.15 91.54-3.08 90.24-2 88.94-1.2L88.94-1.2Q87.84-0.55 86.87-0.25 85.89 0.05 85.09 0.05ZM86.64-1.25L86.64-1.25Q87.54-1.25 89.24-2.33 90.94-3.4 93.19-5.65L93.19-5.65Q93.49-5.95 94.32-6.73 95.14-7.5 96.09-8.47 97.04-9.45 97.72-10.43 98.39-11.4 98.39-12.05L98.39-12.05Q98.39-13 96.74-13L96.74-13Q95.29-13 93.27-11.88 91.24-10.75 89.39-8.55L89.39-8.55Q87.49-6.3 86.62-4.67 85.74-3.05 85.74-2.2L85.74-2.2Q85.74-1.25 86.64-1.25ZM109.44 0.85L109.44 0.85Q107.84 0.85 106.99-0.1 106.14-1.05 106.14-2.75L106.14-2.75Q106.14-4.35 106.99-6.5L106.99-6.5 107.09-6.75 106.19-5.9Q105.99-5.7 105.74-5.7L105.74-5.7Q105.49-5.7 105.49-5.9L105.49-5.9Q105.49-6.15 105.84-6.5L105.84-6.5Q107.14-7.65 108.51-8.93 109.89-10.2 110.84-11.35L110.84-11.35Q110.49-11.2 110.09-11.2L110.09-11.2Q109.69-11.2 109.49-11.4L109.49-11.4Q109.14-11.65 109.14-12.3L109.14-12.3Q109.14-12.85 109.66-13.45 110.19-14.05 111.84-14.5L111.84-14.5Q112.19-14.6 112.56-14.65 112.94-14.7 113.29-14.75L113.29-14.75Q114.89-17 116.09-18.93 117.29-20.85 117.99-21.5L117.99-21.5Q118.29-21.85 119.06-22.1 119.84-22.35 120.71-22.5 121.59-22.65 122.09-22.65L122.09-22.65Q123.74-22.65 123.74-22.35L123.74-22.35Q123.74-22.15 122.99-21.4L122.99-21.4Q121.74-20.2 120.06-18.43 118.39-16.65 116.64-14.6L116.64-14.6Q118.09-14.4 119.31-13.85 120.54-13.3 121.09-12.45L121.09-12.45Q121.29-12.2 121.29-11.85L121.29-11.85Q121.29-11.45 121.04-11.45L121.04-11.45Q120.84-11.45 120.59-11.7L120.59-11.7Q119.54-12.75 117.09-12.75L117.09-12.75Q116.59-12.75 116.06-12.7 115.54-12.65 114.99-12.55L114.99-12.55Q113.29-10.35 111.89-8.15 110.49-5.95 109.89-4.05L109.89-4.05Q109.59-3.15 109.59-2.4L109.59-2.4Q109.59-1.65 109.94-1.18 110.29-0.7 110.99-0.7L110.99-0.7Q111.44-0.7 112.09-0.95L112.09-0.95Q113.04-1.3 114.29-2.13 115.54-2.95 116.81-4 118.09-5.05 119.21-6.05 120.34-7.05 121.09-7.75 121.84-8.45 121.94-8.55L121.94-8.55Q122.09-8.7 122.19-8.7L122.19-8.7Q122.39-8.7 122.39-8.4L122.39-8.4Q122.39-8.05 122.09-7.75L122.09-7.75Q121.59-7.25 120.56-6.25 119.54-5.25 118.21-4.03 116.89-2.8 115.39-1.7 113.89-0.6 112.36 0.13 110.84 0.85 109.44 0.85ZM124.89 0.5L124.89 0.5Q122.69 0.5 121.21-0.58 119.74-1.65 119.74-3.7L119.74-3.7Q119.74-5.9 120.79-7.8 121.84-9.7 123.59-11.13 125.34-12.55 127.41-13.35 129.49-14.15 131.54-14.15L131.54-14.15Q133.59-14.15 134.59-13.43 135.59-12.7 135.59-11.65L135.59-11.65Q135.59-10.65 134.66-9.53 133.74-8.4 131.99-7.55L131.99-7.55Q130.89-7.05 129.46-6.68 128.04-6.3 126.99-6.3L126.99-6.3Q126.19-6.3 126.19-6.55L126.19-6.55Q126.19-6.75 126.89-6.75L126.89-6.75Q127.54-6.75 128.91-7.13 130.29-7.5 131.59-8.15L131.59-8.15Q133.04-8.95 133.64-9.75 134.24-10.55 134.24-11.2L134.24-11.2Q134.24-11.8 133.76-12.2 133.29-12.6 132.44-12.6L132.44-12.6Q131.64-12.6 130.64-12.15L130.64-12.15Q129.19-11.5 127.66-10.03 126.14-8.55 125.14-6.8 124.14-5.05 124.14-3.45L124.14-3.45Q124.14-2.35 124.76-1.6 125.39-0.85 126.64-0.85L126.64-0.85Q127.94-0.85 129.64-1.68 131.34-2.5 133.09-3.73 134.84-4.95 136.34-6.2 137.84-7.45 138.74-8.3L138.74-8.3Q139.04-8.6 139.19-8.6L139.19-8.6Q139.34-8.6 139.34-8.35L139.34-8.35Q139.34-8 139.04-7.75L139.04-7.75Q137.14-6 134.91-4.1 132.69-2.2 130.16-0.88 127.64 0.45 124.89 0.5ZM167.13 15.3L167.13 15.3Q164.68 15.3 162.36 14.58 160.03 13.85 158.18 12.28 156.33 10.7 155.23 8.15 154.13 5.6 154.13 2L154.13 2 154.13 1.8Q154.13 1.25 154.38 1.25L154.38 1.25Q154.73 1.25 154.83 1.9L154.83 1.9Q155.33 5.4 156.81 8.05 158.28 10.7 160.46 12.2 162.63 13.7 165.18 13.7L165.18 13.7Q167.88 13.7 170.33 12.2 172.78 10.7 174.98 8.3 177.18 5.9 179.11 3.23 181.03 0.55 182.58-1.85L182.58-1.85Q188.48-10.8 190.73-17.57 192.98-24.35 192.73-29.05L192.73-29.05Q191.93-26.3 190.33-23.05 188.73-19.8 186.68-16.57 184.63-13.35 182.48-10.65L182.48-10.65Q181.78-9.8 180.51-8.35 179.23-6.9 177.63-5.3 176.03-3.7 174.33-2.25 172.63-0.8 170.98 0.1 169.33 1 168.03 1L168.03 1Q167.88 1 167.73 1 167.58 1 167.43 0.95L167.43 0.95Q166.23 0.65 166.23-0.95L166.23-0.95Q166.23-2.25 166.88-4.1 167.53-5.95 168.61-8.15 169.68-10.35 170.93-12.63 172.18-14.9 173.38-16.95L173.38-16.95Q174.08-18.15 175.06-19.8 176.03-21.45 176.76-23.25 177.48-25.05 177.48-26.6L177.48-26.6Q177.48-28.2 176.33-29.23 175.18-30.25 172.23-30.25L172.23-30.25Q170.43-30.25 168.36-29.93 166.28-29.6 164.26-29.1 162.23-28.6 160.53-28.1 158.83-27.6 157.78-27.25L157.78-27.25Q155.23-26.35 153.41-25.33 151.58-24.3 151.58-23.3L151.58-23.3Q151.58-22.6 152.48-22L152.48-22 152.58-21.9Q152.58-21.85 152.38-21.85L152.38-21.85Q152.08-21.85 151.93-21.95L151.93-21.95Q150.83-22.7 150.83-24.15L150.83-24.15Q150.83-25.25 151.58-26.45 152.33-27.65 153.88-28.55L153.88-28.55Q156.48-30.05 159.86-31.13 163.23-32.2 166.71-32.8 170.18-33.4 173.03-33.4L173.03-33.4Q177.18-33.4 178.81-32.15 180.43-30.9 180.43-28.85L180.43-28.85Q180.43-27.05 179.48-24.85 178.53-22.65 177.18-20.35 175.83-18.05 174.63-16L174.63-16Q173.53-14.05 172.31-11.95 171.08-9.85 170.01-7.85 168.93-5.85 168.28-4.2 167.63-2.55 167.63-1.5L167.63-1.5Q167.63-0.85 167.93-0.45 168.23-0.05 168.93-0.05L168.93-0.05Q169.93-0.05 171.43-1.07 172.93-2.1 174.58-3.7 176.23-5.3 177.78-7.03 179.33-8.75 180.48-10.18 181.63-11.6 182.08-12.25L182.08-12.25Q185.58-17.3 188.26-21.9 190.93-26.5 192.08-30.35L192.08-30.35Q192.43-31.5 192.83-31.6L192.83-31.6Q193.03-31.7 193.13-31.7L193.13-31.7Q193.38-31.7 193.53-31.3L193.53-31.3Q194.03-29.95 194.26-28.33 194.48-26.7 194.48-24.85L194.48-24.85Q194.48-21.55 193.81-17.85 193.13-14.15 191.96-10.43 190.78-6.7 189.23-3.33 187.68 0.05 185.88 2.65L185.88 2.65Q183.48 6.15 180.46 9.03 177.43 11.9 174.06 13.6 170.68 15.3 167.13 15.3ZM197.73 0.45L197.73 0.45Q195.78 0.45 194.8-0.53 193.83-1.5 193.83-3.05L193.83-3.05Q193.83-4 194.08-4.9 194.33-5.8 194.63-6.5L194.63-6.5Q194.28-6.15 193.95-5.88 193.63-5.6 193.43-5.45L193.43-5.45Q193.23-5.3 193.08-5.3L193.08-5.3Q192.88-5.3 192.88-5.55L192.88-5.55Q192.88-5.9 193.38-6.35L193.38-6.35Q195.13-7.8 196.13-8.93 197.13-10.05 198.23-11L198.23-11Q200.08-12.6 202.18-13.5 204.28-14.4 206.38-14.4L206.38-14.4Q208.58-14.4 209.83-13.35 211.08-12.3 211.08-10.25L211.08-10.25Q211.08-9.1 210.4-7.6 209.73-6.1 208.28-4.5L208.28-4.5Q207.68-3.85 206.93-3.23 206.18-2.6 205.63-2.3L205.63-2.3Q208.08-2.55 210.23-4.03 212.38-5.5 214.08-6.95L214.08-6.95Q214.33-7.1 214.43-7.1L214.43-7.1Q214.68-7.1 214.68-6.85L214.68-6.85Q214.68-6.65 214.43-6.4L214.43-6.4Q212.28-4.35 209.8-2.95 207.33-1.55 204.33-1.6L204.33-1.6Q202.58-0.65 200.9-0.1 199.23 0.45 197.73 0.45ZM199.98-0.95L199.98-0.95Q200.68-0.95 201.48-1.2 202.28-1.45 203.08-1.85L203.08-1.85Q202.78-1.85 202.5-2.15 202.23-2.45 202.23-2.95L202.23-2.95Q202.23-3.95 202.98-5 203.73-6.05 204.83-6.8 205.93-7.55 206.98-7.55L206.98-7.55Q207.58-7.55 208.1-7.23 208.63-6.9 208.68-6.35L208.68-6.35Q209.53-7.3 209.85-8.4 210.18-9.5 210.18-10.45L210.18-10.45Q210.18-11.75 209.35-12.43 208.53-13.1 207.13-13.1L207.13-13.1Q205.78-13.1 204.15-12.15 202.53-11.2 201.1-9.7 199.68-8.2 198.75-6.45 197.83-4.7 197.83-3.1L197.83-3.1Q197.83-0.95 199.98-0.95ZM228.78 1.95L228.78 1.95Q228.13 1.7 227.5 1.05 226.88 0.4 226.88-1.2L226.88-1.2Q226.88-2.55 227.33-4.03 227.78-5.5 228.48-6.95L228.48-6.95Q227.18-5.3 225.65-3.7 224.13-2.1 222.6-1.07 221.08-0.05 219.78-0.05L219.78-0.05Q218.68-0.05 217.95-0.65 217.23-1.25 217.23-2.5L217.23-2.5Q217.23-3.4 217.58-4.45L217.58-4.45Q217.93-5.5 218.83-6.8 219.73-8.1 220.8-9.38 221.88-10.65 222.68-11.55L222.68-11.55Q223.23-12.2 223.23-12.6L223.23-12.6Q223.23-13.1 222.68-13.1L222.68-13.1Q222.08-13.1 220.98-12.3L220.98-12.3Q219.83-11.45 218.53-10.23 217.23-9 216.08-7.88 214.93-6.75 214.13-6.1L214.13-6.1Q213.98-5.95 213.83-5.95L213.83-5.95Q213.58-5.95 213.58-6.25L213.58-6.25Q213.58-6.5 214.03-6.9L214.03-6.9Q216.23-8.8 217.68-10.38 219.13-11.95 220.53-13.05L220.53-13.05Q221.28-13.65 222.08-13.93 222.88-14.2 223.58-14.2L223.58-14.2Q224.78-14.2 225.58-13.5 226.38-12.8 226.38-11.55L226.38-11.55Q226.38-10.6 225.88-9.55L225.88-9.55Q225.33-8.3 224.4-7.08 223.48-5.85 222.63-4.7L222.63-4.7Q221.98-3.75 221.68-3.15 221.38-2.55 221.38-2.25L221.38-2.25Q221.38-1.85 221.78-1.85L221.78-1.85Q222.18-1.85 222.93-2.3 223.68-2.75 224.48-3.45L224.48-3.45Q225.03-3.95 225.45-4.38 225.88-4.8 226.08-5L226.08-5Q227.23-6.2 228.38-7.58 229.53-8.95 230.38-10.1L230.38-10.1Q231.03-10.95 231.4-11.4 231.78-11.85 232.23-12.35L232.23-12.35Q233.08-13.3 234.03-13.35L234.03-13.35Q234.58-13.35 235.3-13.13 236.03-12.9 236.73-12.25L236.73-12.25Q236.23-11.55 235.25-10.33 234.28-9.1 233.15-7.63 232.03-6.15 231-4.6 229.98-3.05 229.33-1.7 228.68-0.35 228.68 0.65L228.68 0.65Q228.68 1.35 229.08 1.75L229.08 1.75Q229.28 1.95 229.08 1.98 228.88 2 228.78 1.95ZM243.77 0.05L243.77 0.05Q241.62 0.05 240.87-0.78 240.12-1.6 240.12-2.6L240.12-2.6Q240.12-3.9 241.12-5.35L241.12-5.35Q241.72-6.2 242.47-7.28 243.22-8.35 243.87-9.3 244.52-10.25 244.77-10.65L244.77-10.65Q245.12-11.15 245.2-11.33 245.27-11.5 245.27-11.7L245.27-11.7Q245.27-12 244.9-12.28 244.52-12.55 243.67-12.55L243.67-12.55Q243.42-12.55 243.25-12.53 243.07-12.5 242.87-12.5L242.87-12.5Q242.47-12.5 242.42-12.55L242.42-12.55 242.27-12.35Q240.87-10.5 239.27-8.72 237.67-6.95 235.77-5.45L235.77-5.45Q235.57-5.3 235.47-5.3L235.47-5.3Q235.27-5.3 235.27-5.5L235.27-5.5Q235.27-5.9 235.87-6.4L235.87-6.4Q237.42-7.7 238.92-9.33 240.42-10.95 241.62-12.75L241.62-12.75Q241.17-13.05 241.17-13.95L241.17-13.95Q241.17-15.3 242.02-16.85L242.02-16.85Q242.62-17.9 243.35-18.43 244.07-18.95 244.62-18.95L244.62-18.95Q245.67-18.95 245.67-17.7L245.67-17.7Q245.67-16.9 245.07-15.7L245.07-15.7Q244.82-15.1 244.1-14.18 243.37-13.25 242.67-12.85L242.67-12.85Q243.72-13.2 245.35-13.33 246.97-13.45 248.07-13.45L248.07-13.45Q248.72-13.45 249.67-13.08 250.62-12.7 250.62-11.75L250.62-11.75Q250.62-11.1 250.02-10.35L250.02-10.35Q249.87-10.15 249.22-9.4 248.57-8.65 247.8-7.6 247.02-6.55 246.37-5.5L246.37-5.5Q245.72-4.55 245.35-3.75 244.97-2.95 244.97-2.4L244.97-2.4Q244.97-1.6 245.87-1.6L245.87-1.6Q246.92-1.6 248.67-2.6 250.42-3.6 252.45-5.18 254.47-6.75 256.17-8.45L256.17-8.45Q256.37-8.65 256.52-8.65L256.52-8.65Q256.72-8.65 256.72-8.4L256.72-8.4Q256.72-8.1 256.47-7.85L256.47-7.85Q254.72-6.1 252.6-4.28 250.47-2.45 248.2-1.2 245.92 0.05 243.77 0.05ZM279.52 1.65L279.52 1.65Q277.87 1.7 275.87 1.38 273.87 1.05 271.97 0.25 270.07-0.55 268.67-1.85 267.27-3.15 266.77-5.05L266.77-5.05Q268.57-3.45 271.67-2.73 274.77-2 277.97-2L277.97-2Q282.22-2 285.37-2.95L285.37-2.95Q286.27-3.2 287.47-3.78 288.67-4.35 289.82-5.13 290.97-5.9 291.74-6.85 292.52-7.8 292.52-8.8L292.52-8.8Q292.52-9.5 292.07-10.15 291.62-10.8 290.62-11.45L290.62-11.45Q290.02-11.8 288.89-12.23 287.77-12.65 286.47-13.23 285.17-13.8 284.02-14.58 282.87-15.35 282.19-16.43 281.52-17.5 281.67-18.9L281.67-18.9Q281.92-20.95 283.54-22.98 285.17-25 287.64-26.78 290.12-28.55 292.99-29.9 295.87-31.25 298.64-32.02 301.42-32.8 303.57-32.8L303.57-32.8Q305.77-32.8 307.34-31.95 308.92-31.1 308.67-29.05L308.67-29.05Q308.57-28.15 307.44-26.9 306.32-25.65 304.77-24.15 303.22-22.65 301.69-21 300.17-19.35 299.19-17.65 298.22-15.95 298.32-14.35L298.32-14.35Q297.52-15 297.14-15.8 296.77-16.6 296.77-17.45L296.77-17.45Q296.77-18.65 297.27-19.9 297.77-21.15 298.52-22.28 299.27-23.4 299.92-24.2L299.92-24.2Q301.07-25.6 302.52-26.85 303.97-28.1 305.47-29.15L305.47-29.15Q305.02-29.8 303.92-29.8L303.92-29.8Q302.77-29.8 301.34-29.3 299.92-28.8 298.69-28.23 297.47-27.65 296.97-27.35L296.97-27.35Q294.82-26.2 292.64-24.75 290.47-23.3 288.64-21.8 286.82-20.3 285.69-19.03 284.57-17.75 284.47-16.9L284.47-16.9Q284.37-15.85 285.37-15.13 286.37-14.4 287.97-13.8 289.57-13.2 291.12-12.4L291.12-12.4Q293.22-11.35 294.17-10 295.12-8.65 295.12-7.2L295.12-7.2Q295.12-5.4 293.77-3.68 292.42-1.95 290.12-0.8L290.12-0.8Q288.07 0.2 285.84 0.75 283.62 1.3 281.89 1.48 280.17 1.65 279.52 1.65ZM299.97 0.85L299.97 0.85Q298.37 0.85 297.52-0.1 296.67-1.05 296.67-2.75L296.67-2.75Q296.67-4.35 297.52-6.5L297.52-6.5 297.62-6.75 296.72-5.9Q296.52-5.7 296.27-5.7L296.27-5.7Q296.02-5.7 296.02-5.9L296.02-5.9Q296.02-6.15 296.37-6.5L296.37-6.5Q297.67-7.65 299.04-8.93 300.42-10.2 301.37-11.35L301.37-11.35Q301.02-11.2 300.62-11.2L300.62-11.2Q300.22-11.2 300.02-11.4L300.02-11.4Q299.67-11.65 299.67-12.3L299.67-12.3Q299.67-12.85 300.19-13.45 300.72-14.05 302.37-14.5L302.37-14.5Q302.72-14.6 303.09-14.65 303.47-14.7 303.82-14.75L303.82-14.75Q305.42-17 306.62-18.93 307.82-20.85 308.52-21.5L308.52-21.5Q308.82-21.85 309.59-22.1 310.37-22.35 311.24-22.5 312.12-22.65 312.62-22.65L312.62-22.65Q314.27-22.65 314.27-22.35L314.27-22.35Q314.27-22.15 313.52-21.4L313.52-21.4Q312.27-20.2 310.59-18.43 308.92-16.65 307.17-14.6L307.17-14.6Q308.62-14.4 309.84-13.85 311.07-13.3 311.62-12.45L311.62-12.45Q311.82-12.2 311.82-11.85L311.82-11.85Q311.82-11.45 311.57-11.45L311.57-11.45Q311.37-11.45 311.12-11.7L311.12-11.7Q310.07-12.75 307.62-12.75L307.62-12.75Q307.12-12.75 306.59-12.7 306.07-12.65 305.52-12.55L305.52-12.55Q303.82-10.35 302.42-8.15 301.02-5.95 300.42-4.05L300.42-4.05Q300.12-3.15 300.12-2.4L300.12-2.4Q300.12-1.65 300.47-1.18 300.82-0.7 301.52-0.7L301.52-0.7Q301.97-0.7 302.62-0.95L302.62-0.95Q303.57-1.3 304.82-2.13 306.07-2.95 307.34-4 308.62-5.05 309.74-6.05 310.87-7.05 311.62-7.75 312.37-8.45 312.47-8.55L312.47-8.55Q312.62-8.7 312.72-8.7L312.72-8.7Q312.92-8.7 312.92-8.4L312.92-8.4Q312.92-8.05 312.62-7.75L312.62-7.75Q312.12-7.25 311.09-6.25 310.07-5.25 308.74-4.03 307.42-2.8 305.92-1.7 304.42-0.6 302.89 0.13 301.37 0.85 299.97 0.85ZM307.16 13.45L307.16 13.45Q304.76 13.45 302.74 12.73 300.71 12 299.36 10.45L299.36 10.45Q298.01 8.9 297.56 6.3L297.56 6.3Q297.46 5.9 297.76 5.9L297.76 5.9Q297.96 5.9 298.06 6.25L298.06 6.25Q298.61 9.05 300.79 10.8 302.96 12.55 305.76 12.55L305.76 12.55Q308.36 12.55 311.01 11.18 313.66 9.8 316.16 7.43 318.66 5.05 320.86 2.05L320.86 2.05Q323.21-1.15 325.14-4.6 327.06-8.05 328.86-11.55L328.86-11.55Q328.21-10.6 327.51-9.6 326.81-8.6 326.11-7.75L326.11-7.75Q324.76-6.05 323.04-4.28 321.31-2.5 319.61-1.28 317.91-0.05 316.51-0.05L316.51-0.05Q315.41-0.05 314.69-0.65 313.96-1.25 313.96-2.5L313.96-2.5Q313.96-3.6 314.36-4.53 314.76-5.45 315.26-6.25L315.26-6.25Q316.11-7.65 317.31-9.1 318.51-10.55 319.41-11.55L319.41-11.55Q319.96-12.2 319.96-12.6L319.96-12.6Q319.96-13.1 319.41-13.1L319.41-13.1Q318.76-13.1 317.76-12.3L317.76-12.3Q316.56-11.45 315.31-10.28 314.06-9.1 312.96-8.05 311.86-7 311.16-6.4L311.16-6.4Q310.81-6.15 310.66-6.15L310.66-6.15Q310.46-6.15 310.46-6.35L310.46-6.35Q310.46-6.65 310.81-6.95L310.81-6.95Q311.81-7.8 312.94-8.95 314.06-10.1 315.19-11.23 316.31-12.35 317.26-13.05L317.26-13.05Q318.01-13.65 318.81-13.93 319.61-14.2 320.31-14.2L320.31-14.2Q321.51-14.2 322.34-13.5 323.16-12.8 323.16-11.55L323.16-11.55Q323.16-10.6 322.66-9.55L322.66-9.55Q322.06-8.3 321.14-7.08 320.21-5.85 319.36-4.7L319.36-4.7Q318.71-3.75 318.41-3.15 318.11-2.55 318.11-2.3L318.11-2.3Q318.11-1.85 318.51-1.85L318.51-1.85Q318.91-1.85 319.69-2.3 320.46-2.75 321.26-3.45L321.26-3.45Q322.61-4.7 324.24-6.53 325.86-8.35 327.41-10.35 328.96-12.35 330.11-14.05L330.11-14.05Q330.81-15.7 331.61-16.95 332.41-18.2 333.66-18.2L333.66-18.2Q334.36-18.2 334.79-17.8 335.21-17.4 335.21-17L335.21-17Q335.21-16.65 334.91-16.43 334.61-16.2 333.91-16.25L333.91-16.25Q333.36-16.35 332.66-16.05 331.96-15.75 331.21-14.15L331.21-14.15Q330.41-12.35 329.69-9.95 328.96-7.55 327.96-4.8 326.96-2.05 325.34 0.88 323.71 3.8 321.01 6.65L321.01 6.65Q318.36 9.45 314.74 11.45 311.11 13.45 307.16 13.45ZM337.36 0.25L337.36 0.25Q335.36 0.25 334.56-0.73 333.76-1.7 333.76-3L333.76-3Q333.76-4.25 334.24-5.65 334.71-7.05 335.31-8.3L335.31-8.3Q334.66-7.6 334.06-7.03 333.46-6.45 333.06-6.1L333.06-6.1Q332.86-5.95 332.66-5.95L332.66-5.95Q332.41-5.95 332.41-6.2L332.41-6.2Q332.41-6.45 332.71-6.65L332.71-6.65Q333.76-7.55 335.16-9.1 336.56-10.65 337.76-12.25L337.76-12.25Q338.76-13.55 340.16-15.5 341.56-17.45 343.01-19.63 344.46-21.8 345.51-23.6L345.51-23.6Q345.66-23.9 345.84-24.35 346.01-24.8 346.01-25.15L346.01-25.15Q346.01-25.65 345.61-25.65L345.61-25.65Q345.51-25.65 345.04-25.45 344.56-25.25 344.11-25.05 343.66-24.85 343.56-24.85L343.56-24.85Q343.16-24.85 343.61-25.3L343.61-25.3Q344.41-25.9 345.64-26.48 346.86-27.05 348.16-27.45 349.46-27.85 350.36-27.85L350.36-27.85Q352.46-27.85 352.46-26.5L352.46-26.5Q352.46-25.8 351.81-24.65L351.81-24.65Q351.26-23.75 350.21-22.53 349.16-21.3 347.89-19.93 346.61-18.55 345.41-17.23 344.21-15.9 343.41-14.9L343.41-14.9Q343.21-14.65 342.44-13.6 341.66-12.55 340.69-11.08 339.71-9.6 338.74-7.98 337.76-6.35 337.14-4.88 336.51-3.4 336.51-2.4L336.51-2.4Q336.51-1.05 337.81-1.05L337.81-1.05Q338.66-1.05 339.96-1.55L339.96-1.55Q341.21-2 342.59-2.93 343.96-3.85 345.29-4.9 346.61-5.95 347.64-6.9 348.66-7.85 349.16-8.35L349.16-8.35Q349.46-8.65 349.66-8.65L349.66-8.65Q349.86-8.65 349.86-8.4L349.86-8.4Q349.86-8.15 349.61-7.9L349.61-7.9Q348.81-7.05 347.44-5.7 346.06-4.35 344.39-2.98 342.71-1.6 340.91-0.68 339.11 0.25 337.36 0.25ZM352.31 0.5L352.31 0.5Q350.11 0.5 348.63-0.58 347.16-1.65 347.16-3.7L347.16-3.7Q347.16-5.9 348.21-7.8 349.26-9.7 351.01-11.13 352.76-12.55 354.83-13.35 356.91-14.15 358.96-14.15L358.96-14.15Q361.01-14.15 362.01-13.43 363.01-12.7 363.01-11.65L363.01-11.65Q363.01-10.65 362.08-9.53 361.16-8.4 359.41-7.55L359.41-7.55Q358.31-7.05 356.88-6.68 355.46-6.3 354.41-6.3L354.41-6.3Q353.61-6.3 353.61-6.55L353.61-6.55Q353.61-6.75 354.31-6.75L354.31-6.75Q354.96-6.75 356.33-7.13 357.71-7.5 359.01-8.15L359.01-8.15Q360.46-8.95 361.06-9.75 361.66-10.55 361.66-11.2L361.66-11.2Q361.66-11.8 361.18-12.2 360.71-12.6 359.86-12.6L359.86-12.6Q359.06-12.6 358.06-12.15L358.06-12.15Q356.61-11.5 355.08-10.03 353.56-8.55 352.56-6.8 351.56-5.05 351.56-3.45L351.56-3.45Q351.56-2.35 352.18-1.6 352.81-0.85 354.06-0.85L354.06-0.85Q355.36-0.85 357.06-1.68 358.76-2.5 360.51-3.73 362.26-4.95 363.76-6.2 365.26-7.45 366.16-8.3L366.16-8.3Q366.46-8.6 366.61-8.6L366.61-8.6Q366.76-8.6 366.76-8.35L366.76-8.35Q366.76-8 366.46-7.75L366.46-7.75Q364.56-6 362.33-4.1 360.11-2.2 357.58-0.88 355.06 0.45 352.31 0.5Z" opacity="1" transform="matrix(1,0,0,1,0,0)" fill="white" class="slogan-text-1" id="SvgjsPath2221"></path></svg></g></svg></g></svg></g></svg></g><g transform="matrix(1,0,0,1,0,0.29868409689720465)"><svg viewBox="0 0 114.06267765949083 119.47363875888053" height="119.47363875888053" width="114.06267765949083"><g><svg xmlns="http://www.w3.org/2000/svg" xml:space="preserve" version="1.0" viewBox="0 0 95.471 100" id="SvgjsSvg2220" width="114.06267765949083" height="119.47363875888053" x="0" y="0" class="icon-icon-0" data-fill-palette-color="accent"><path d="M47.735 0c-0.083 2.825-1.738 13.412-19.799 30.934C10.554 47.797 2.439 49.824 0 50c2.439 0.178 10.554 2.204 27.936 19.066C45.997 86.589 47.652 97.177 47.735 100c0.083-2.823 1.739-13.411 19.798-30.934C84.917 52.204 93.031 50.178 95.471 50c-2.439-0.176-10.554-2.203-27.938-19.066C49.475 13.412 47.819 2.825 47.735 0" fill="black"></path></svg></g></svg></g></svg></g><defs><mask></mask></defs><mask><g id="SvgjsG2219"><svg viewBox="0 0 395.52 86.38803823866986" height="86.38803823866986" width="395.52"><g><svg viewBox="0 0 549.7344960967505 120.07100695267494" height="86.38803823866986" width="395.52"><g><rect width="6.439124535278429" height="120.07100695267494" x="130.91902461048147" y="0" fill="black" opacity="1" stroke-width="0" stroke="transparent" fill-opacity="1" class="rect-yte-0" rx="1%" id="SvgjsRect2218" data-palette-color="url(#93a70ad8-7257-4fe3-b186-5cd14e415c86)"></rect></g><g transform="matrix(1,0,0,1,154.21449609675057,0.29868409689719755)"><svg viewBox="0 0 395.52 119.47363875888054" height="119.47363875888054" width="395.52"><g id="SvgjsG2217"><svg viewBox="0 0 395.52 119.47363875888054" height="119.47363875888054" width="395.52" id="SvgjsSvg2216"><g><svg viewBox="0 0 395.52 71.40220501444726" height="71.40220501444726" width="395.52"><g transform="matrix(1,0,0,1,0,0)"><svg width="395.52" viewBox="3.86 -32.03 232.86999999999998 42.040850697216996" height="71.40220501444726" data-palette-color="url(#93a70ad8-7257-4fe3-b186-5cd14e415c86)"><path d="M23.02-29.52Q24.02-29.52 24.44-29.15 24.85-28.78 24.85-27.93L24.85-27.93 24.85-22.31Q24.85-21.46 24.44-21.09 24.02-20.73 23.02-20.73L23.02-20.73Q22.09-20.73 21.75-21.36L21.75-21.36Q20.58-23.58 18.46-24.74 16.33-25.9 13.62-25.9L13.62-25.9Q10.94-25.9 9.46-24.66 7.98-23.41 7.98-21.31L7.98-21.31Q7.98-20.31 8.5-19.63 9.01-18.95 9.96-18.46L9.96-18.46Q10.82-18.02 11.96-17.74 13.11-17.46 15.04-17.09L15.04-17.09Q17.14-16.67 18.37-16.39 19.6-16.11 20.8-15.63L20.8-15.63Q23.24-14.62 24.62-12.83 26-11.04 26-7.98L26-7.98Q26-5.44 24.8-3.53 23.61-1.61 21.28-0.54 18.95 0.54 15.67 0.54L15.67 0.54Q13.23 0.54 11.15-0.35 9.06-1.25 7.52-2.95L7.52-2.95 7.52-1.05Q7.52-0.2 7.1 0.17 6.69 0.54 5.69 0.54L5.69 0.54Q4.69 0.54 4.27 0.17 3.86-0.2 3.86-1.05L3.86-1.05 3.86-8.37Q3.86-9.23 4.27-9.59 4.69-9.96 5.69-9.96L5.69-9.96Q6.74-9.96 7.1-8.94L7.1-8.94Q8.11-6.1 10.29-4.59 12.48-3.08 15.67-3.08L15.67-3.08Q18.8-3.08 20.47-4.42 22.14-5.76 22.14-7.98L22.14-7.98Q22.14-9.52 21.37-10.49 20.61-11.45 19.14-12.08L19.14-12.08Q18.21-12.5 17.11-12.76 16.02-13.01 14.11-13.4L14.11-13.4Q12.11-13.79 10.75-14.14 9.4-14.48 8.25-14.99L8.25-14.99Q6.3-15.87 5.21-17.37 4.13-18.87 4.13-21.31L4.13-21.31Q4.13-23.83 5.33-25.68 6.54-27.54 8.7-28.53 10.86-29.52 13.62-29.52L13.62-29.52Q15.77-29.52 17.77-28.69 19.78-27.86 21.19-26.44L21.19-26.44 21.19-27.93Q21.19-28.78 21.61-29.15 22.02-29.52 23.02-29.52L23.02-29.52ZM41.16-29.52Q42.16-29.52 42.58-29.15 42.99-28.78 42.99-27.93L42.99-27.93 42.99-20.61 53.02-20.61Q53.85-20.61 54.21-20.23 54.56-19.85 54.56-18.95L54.56-18.95Q54.56-18.04 54.21-17.66 53.85-17.29 53.02-17.29L53.02-17.29 42.99-17.29 42.99-8.4Q42.99-5.62 43.96-4.32 44.92-3.03 47.31-3.03L47.31-3.03Q48.95-3.03 50.75-3.69 52.56-4.35 54.25-5.44L54.25-5.44Q54.59-5.69 55-5.69L55-5.69Q55.83-5.69 56.42-4.57L56.42-4.57Q56.74-3.93 56.74-3.47L56.74-3.47Q56.74-2.69 55.93-2.2L55.93-2.2Q54.03-1 51.68-0.23 49.34 0.54 47.31 0.54L47.31 0.54Q43.16 0.54 41.25-1.62 39.33-3.78 39.33-8.08L39.33-8.08 39.33-17.29 34.37-17.29Q33.54-17.29 33.19-17.66 32.83-18.04 32.83-18.95L32.83-18.95Q32.83-19.85 33.19-20.23 33.54-20.61 34.37-20.61L34.37-20.61 39.33-20.61 39.33-27.93Q39.33-28.78 39.74-29.15 40.16-29.52 41.16-29.52L41.16-29.52ZM87.18-22.56Q88.01-22.56 88.36-22.18 88.72-21.8 88.72-20.9L88.72-20.9Q88.72-20 88.36-19.62 88.01-19.24 87.18-19.24L87.18-19.24 85.66-19.24 75.68 1.22Q74.09 4.47 72.58 6.32 71.06 8.18 69.17 9.05 67.28 9.91 64.57 10.01L64.57 10.01Q63.72 10.03 63.25 9.58 62.79 9.13 62.79 7.98L62.79 7.98Q62.79 6.4 64.08 6.32L64.08 6.32Q66.43 6.2 67.81 5.54 69.18 4.88 70.34 3.28 71.5 1.68 73.19-1.71L73.19-1.71 64.25-19.24 62.71-19.24Q61.88-19.24 61.53-19.62 61.18-20 61.18-20.9L61.18-20.9Q61.18-21.8 61.53-22.18 61.88-22.56 62.71-22.56L62.71-22.56 71.36-22.56Q72.19-22.56 72.54-22.18 72.9-21.8 72.9-20.9L72.9-20.9Q72.9-20 72.54-19.62 72.19-19.24 71.36-19.24L71.36-19.24 68.23-19.24 75.12-5.52 81.68-19.24 79.51-19.24Q78.68-19.24 78.33-19.62 77.97-20 77.97-20.9L77.97-20.9Q77.97-21.8 78.33-22.18 78.68-22.56 79.51-22.56L79.51-22.56 87.18-22.56ZM105.56-32.03Q106.39-32.03 106.74-31.65 107.1-31.27 107.1-30.37L107.1-30.37 107.1-3.32 114.93-3.32Q115.76-3.32 116.12-2.94 116.47-2.56 116.47-1.66L116.47-1.66Q116.47-0.76 116.12-0.38 115.76 0 114.93 0L114.93 0 95.79 0Q94.96 0 94.61-0.38 94.26-0.76 94.26-1.66L94.26-1.66Q94.26-2.56 94.61-2.94 94.96-3.32 95.79-3.32L95.79-3.32 103.43-3.32 103.43-28.71 96.77-28.71Q95.94-28.71 95.59-29.09 95.23-29.47 95.23-30.37L95.23-30.37Q95.23-31.27 95.59-31.65 95.94-32.03 96.77-32.03L96.77-32.03 105.56-32.03ZM135.12-23.1Q138.66-23.1 141.16-21.67 143.67-20.24 145.01-17.71 146.35-15.19 146.55-11.89L146.55-11.89Q146.55-11.06 146.19-10.72 145.84-10.38 145.01-10.38L145.01-10.38 127.33-10.38Q127.5-6.74 129.49-4.87 131.48-3 135.12-3L135.12-3Q137.37-3 139.57-3.58 141.76-4.15 143.42-5.1L143.42-5.1Q143.84-5.32 144.18-5.32L144.18-5.32Q145.03-5.32 145.57-4.03L145.57-4.03Q145.79-3.52 145.79-3.1L145.79-3.1Q145.79-2.12 144.72-1.59L144.72-1.59Q142.84-0.63 140.27-0.05 137.71 0.54 135.12 0.54L135.12 0.54Q131.44 0.54 128.82-0.88 126.21-2.29 124.84-4.96 123.48-7.62 123.48-11.28L123.48-11.28Q123.48-14.77 124.97-17.46 126.45-20.14 129.09-21.62 131.73-23.1 135.12-23.1L135.12-23.1ZM135.12-19.56Q132.12-19.56 130.15-18.03 128.19-16.5 127.58-13.79L127.58-13.79 142.49-13.79Q141.98-16.6 140.14-18.08 138.3-19.56 135.12-19.56L135.12-19.56ZM176.38-28.98Q177.21-28.98 177.56-28.6 177.92-28.22 177.92-27.32L177.92-27.32Q177.92-26.42 177.56-26.04 177.21-25.66 176.38-25.66L176.38-25.66 174.62-25.66 174.62-3.32 176.38-3.32Q177.21-3.32 177.56-2.94 177.92-2.56 177.92-1.66L177.92-1.66Q177.92-0.76 177.56-0.38 177.21 0 176.38 0L176.38 0 168.71 0Q167.88 0 167.53-0.38 167.18-0.76 167.18-1.66L167.18-1.66Q167.18-2.56 167.53-2.94 167.88-3.32 168.71-3.32L168.71-3.32 170.96-3.32 170.96-13.28 158.8-13.28 158.8-3.32 161.05-3.32Q161.88-3.32 162.23-2.94 162.59-2.56 162.59-1.66L162.59-1.66Q162.59-0.76 162.23-0.38 161.88 0 161.05 0L161.05 0 153.38 0Q152.55 0 152.2-0.38 151.84-0.76 151.84-1.66L151.84-1.66Q151.84-2.56 152.2-2.94 152.55-3.32 153.38-3.32L153.38-3.32 155.14-3.32 155.14-25.66 153.38-25.66Q152.55-25.66 152.2-26.04 151.84-26.42 151.84-27.32L151.84-27.32Q151.84-28.22 152.2-28.6 152.55-28.98 153.38-28.98L153.38-28.98 161.05-28.98Q161.88-28.98 162.23-28.6 162.59-28.22 162.59-27.32L162.59-27.32Q162.59-26.42 162.23-26.04 161.88-25.66 161.05-25.66L161.05-25.66 158.8-25.66 158.8-16.6 170.96-16.6 170.96-25.66 168.71-25.66Q167.88-25.66 167.53-26.04 167.18-26.42 167.18-27.32L167.18-27.32Q167.18-28.22 167.53-28.6 167.88-28.98 168.71-28.98L168.71-28.98 176.38-28.98ZM202.72-22.56Q203.55-22.56 203.9-22.18 204.26-21.8 204.26-20.9L204.26-20.9 204.26-3.32 206.26-3.32Q207.09-3.32 207.44-2.94 207.8-2.56 207.8-1.66L207.8-1.66Q207.8-0.76 207.44-0.38 207.09 0 206.26 0L206.26 0 202.38 0Q201.55 0 201.19-0.37 200.84-0.73 200.84-1.64L200.84-1.64 200.84-4.59Q199.23-2.1 197.07-0.78 194.91 0.54 192.42 0.54L192.42 0.54Q190.19 0.54 188.56-0.43 186.92-1.39 186.04-3.2 185.17-5 185.17-7.42L185.17-7.42 185.17-19.24 183.16-19.24Q182.33-19.24 181.98-19.62 181.63-20 181.63-20.9L181.63-20.9Q181.63-21.8 181.98-22.18 182.33-22.56 183.16-22.56L183.16-22.56 187.29-22.56Q188.12-22.56 188.47-22.18 188.83-21.8 188.83-20.9L188.83-20.9 188.83-7.79Q188.83-5.62 189.83-4.35 190.83-3.08 192.78-3.08L192.78-3.08Q194.86-3.08 196.65-4.27 198.45-5.47 199.52-7.57 200.6-9.67 200.6-12.26L200.6-12.26 200.6-19.24 197.13-19.24Q196.3-19.24 195.94-19.62 195.59-20 195.59-20.9L195.59-20.9Q195.59-21.8 195.94-22.18 196.3-22.56 197.13-22.56L197.13-22.56 202.72-22.56ZM216.9-32.03Q217.73-32.03 218.09-31.65 218.44-31.27 218.44-30.37L218.44-30.37 218.44-19.07Q221.59-23.1 226.18-23.1L226.18-23.1Q229.21-23.1 231.6-21.67 233.99-20.24 235.36-17.57 236.73-14.89 236.73-11.28L236.73-11.28Q236.73-7.67 235.36-4.99 233.99-2.32 231.6-0.89 229.21 0.54 226.18 0.54L226.18 0.54Q223.79 0.54 221.76-0.54 219.73-1.61 218.2-3.61L218.2-3.61 218.2-1.66Q218.2-0.76 217.84-0.38 217.49 0 216.66 0L216.66 0 212.78 0Q211.95 0 211.59-0.38 211.24-0.76 211.24-1.66L211.24-1.66Q211.24-2.56 211.59-2.94 211.95-3.32 212.78-3.32L212.78-3.32 214.78-3.32 214.78-28.71 212.29-28.71Q211.46-28.71 211.1-29.09 210.75-29.47 210.75-30.37L210.75-30.37Q210.75-31.27 211.1-31.65 211.46-32.03 212.29-32.03L212.29-32.03 216.9-32.03ZM225.93-19.48Q223.76-19.48 222.07-18.51 220.37-17.53 219.4-15.67 218.44-13.82 218.44-11.28L218.44-11.28Q218.44-8.74 219.4-6.88 220.37-5.03 222.07-4.05 223.76-3.08 225.93-3.08L225.93-3.08Q228.11-3.08 229.67-4.11 231.23-5.15 232.05-7.01 232.87-8.86 232.87-11.28L232.87-11.28Q232.87-13.7 232.05-15.55 231.23-17.41 229.67-18.44 228.11-19.48 225.93-19.48L225.93-19.48Z" opacity="1" transform="matrix(1,0,0,1,0,0)" fill="black" class="wordmark-text-0" id="SvgjsPath2215"></path></svg></g></svg></g><g transform="matrix(1,0,0,1,0,88.25855196543792)"><svg viewBox="0 0 232.209792 31.215086793442623" height="31.215086793442623" width="232.209792"><g transform="matrix(1,0,0,1,0,0)"><svg width="232.209792" viewBox="0.8 -33.9 365.96 49.2" height="31.215086793442623" data-palette-color="url(#df5af89b-3e5d-438d-b7a2-612953ff2283)"><path d="M13.35 2.3L13.35 2.3Q9.35 2.3 6.55 1.03 3.75-0.25 2.27-2.5 0.8-4.75 0.8-7.65L0.8-7.65Q0.8-10.45 2.25-13.63 3.7-16.8 6.75-20.1L6.75-20.1Q9-22.55 11.8-24.68 14.6-26.8 17.53-28.55 20.45-30.3 23.28-31.5 26.1-32.7 28.45-33.25L28.45-33.25Q29.75-33.55 31.08-33.73 32.4-33.9 33.65-33.9L33.65-33.9Q35.8-33.9 37.6-33.35 39.4-32.8 40.5-31.6 41.6-30.4 41.6-28.45L41.6-28.45Q41.6-27.35 41.23-26.3 40.85-25.25 40.6-24.7L40.6-24.7Q40.45-24.4 40.3-24.4L40.3-24.4Q40.2-24.4 40.15-24.58 40.1-24.75 40.2-24.95L40.2-24.95Q40.65-25.95 40.65-26.7L40.65-26.7Q40.65-27.95 39.58-28.53 38.5-29.1 36.65-29.1L36.65-29.1Q34.55-29.1 31.7-28.45 28.85-27.8 25.68-26.65 22.5-25.5 19.35-24 16.2-22.5 13.43-20.73 10.65-18.95 8.65-17.1L8.65-17.1Q5.35-14.05 3.83-11.38 2.3-8.7 2.3-6.6L2.3-6.6Q2.3-3.45 5.25-1.65 8.2 0.15 13.15 0.15L13.15 0.15Q14.45 0.15 15.85 0 17.25-0.15 18.75-0.4L18.75-0.4Q22.3-1.05 25.98-2.33 29.65-3.6 33.02-5.43 36.4-7.25 39.18-9.47 41.95-11.7 43.7-14.2L43.7-14.2Q44.2-14.85 44.3-14.85L44.3-14.85Q44.35-14.85 44.35-14.7L44.35-14.7Q44.35-14.6 44.35-14.48 44.35-14.35 44.25-14.1L44.25-14.1Q43.75-12.65 42.1-10.85 40.45-9.05 37.95-7.18 35.45-5.3 32.4-3.55 29.35-1.8 26-0.43 22.65 0.95 19.3 1.65L19.3 1.65Q16.2 2.3 13.35 2.3ZM10.25-14.1L10.25-14.1Q9.7-14.1 9.35-14.3L9.35-14.3Q9.15-14.4 8.95-14.68 8.75-14.95 8.75-15.35L8.75-15.35Q8.75-15.95 9.63-16.65 10.5-17.35 13.2-17.85L13.2-17.85Q14.1-18 15.2-18.1 16.3-18.2 17.5-18.2L17.5-18.2Q19.6-18.2 21.78-17.93 23.95-17.65 25.73-17.05 27.5-16.45 28.35-15.5L28.35-15.5Q28.65-15.15 28.65-14.8L28.65-14.8Q28.65-14.4 28.25-14.4L28.25-14.4Q27.95-14.4 27.55-14.65L27.55-14.65Q26.7-15.25 25.23-15.55 23.75-15.85 21.85-15.85L21.85-15.85Q18.5-15.85 14.5-15L14.5-15Q13.25-14.75 12.15-14.43 11.05-14.1 10.25-14.1ZM40.55 0.25L40.55 0.25Q38.55 0.25 37.75-0.73 36.95-1.7 36.95-3L36.95-3Q36.95-4.25 37.42-5.65 37.9-7.05 38.5-8.3L38.5-8.3Q37.85-7.6 37.25-7.03 36.65-6.45 36.25-6.1L36.25-6.1Q36.05-5.95 35.85-5.95L35.85-5.95Q35.6-5.95 35.6-6.2L35.6-6.2Q35.6-6.45 35.9-6.65L35.9-6.65Q36.95-7.55 38.35-9.1 39.75-10.65 40.95-12.25L40.95-12.25Q41.95-13.55 43.35-15.5 44.75-17.45 46.2-19.63 47.65-21.8 48.7-23.6L48.7-23.6Q48.85-23.9 49.02-24.35 49.2-24.8 49.2-25.15L49.2-25.15Q49.2-25.65 48.8-25.65L48.8-25.65Q48.7-25.65 48.22-25.45 47.75-25.25 47.3-25.05 46.85-24.85 46.75-24.85L46.75-24.85Q46.35-24.85 46.8-25.3L46.8-25.3Q47.6-25.9 48.82-26.48 50.05-27.05 51.35-27.45 52.65-27.85 53.55-27.85L53.55-27.85Q55.65-27.85 55.65-26.5L55.65-26.5Q55.65-25.8 55-24.65L55-24.65Q54.45-23.75 53.4-22.53 52.35-21.3 51.07-19.93 49.8-18.55 48.6-17.23 47.4-15.9 46.6-14.9L46.6-14.9Q46.4-14.65 45.62-13.6 44.85-12.55 43.87-11.08 42.9-9.6 41.92-7.98 40.95-6.35 40.32-4.88 39.7-3.4 39.7-2.4L39.7-2.4Q39.7-1.05 41-1.05L41-1.05Q41.85-1.05 43.15-1.55L43.15-1.55Q44.4-2 45.77-2.93 47.15-3.85 48.47-4.9 49.8-5.95 50.82-6.9 51.85-7.85 52.35-8.35L52.35-8.35Q52.65-8.65 52.85-8.65L52.85-8.65Q53.05-8.65 53.05-8.4L53.05-8.4Q53.05-8.15 52.8-7.9L52.8-7.9Q52-7.05 50.62-5.7 49.25-4.35 47.57-2.98 45.9-1.6 44.1-0.68 42.3 0.25 40.55 0.25ZM55.5 0.5L55.5 0.5Q53.3 0.5 51.82-0.58 50.35-1.65 50.35-3.7L50.35-3.7Q50.35-5.9 51.4-7.8 52.45-9.7 54.2-11.13 55.95-12.55 58.02-13.35 60.1-14.15 62.15-14.15L62.15-14.15Q64.2-14.15 65.2-13.43 66.2-12.7 66.2-11.65L66.2-11.65Q66.2-10.65 65.27-9.53 64.35-8.4 62.6-7.55L62.6-7.55Q61.5-7.05 60.07-6.68 58.65-6.3 57.6-6.3L57.6-6.3Q56.8-6.3 56.8-6.55L56.8-6.55Q56.8-6.75 57.5-6.75L57.5-6.75Q58.15-6.75 59.52-7.13 60.9-7.5 62.2-8.15L62.2-8.15Q63.65-8.95 64.25-9.75 64.85-10.55 64.85-11.2L64.85-11.2Q64.85-11.8 64.37-12.2 63.9-12.6 63.05-12.6L63.05-12.6Q62.25-12.6 61.25-12.15L61.25-12.15Q59.8-11.5 58.27-10.03 56.75-8.55 55.75-6.8 54.75-5.05 54.75-3.45L54.75-3.45Q54.75-2.35 55.37-1.6 56-0.85 57.25-0.85L57.25-0.85Q58.55-0.85 60.25-1.68 61.95-2.5 63.7-3.73 65.45-4.95 66.95-6.2 68.45-7.45 69.35-8.3L69.35-8.3Q69.65-8.6 69.8-8.6L69.8-8.6Q69.95-8.6 69.95-8.35L69.95-8.35Q69.95-8 69.65-7.75L69.65-7.75Q67.75-6 65.52-4.1 63.3-2.2 60.77-0.88 58.25 0.45 55.5 0.5ZM69.74 0L69.74 0Q69.19 0 68.89-0.15L68.89-0.15Q69.59-1.15 70.22-2.8 70.84-4.45 71.34-6.15 71.84-7.85 72.12-9.08 72.39-10.3 72.39-10.4L72.39-10.4 70.29-8.3Q69.64-7.65 68.89-6.95 68.14-6.25 67.39-5.65L67.39-5.65Q67.19-5.5 67.02-5.38 66.84-5.25 66.69-5.25L66.69-5.25Q66.49-5.25 66.49-5.45L66.49-5.45Q66.49-5.75 66.94-6.15L66.94-6.15Q68.34-7.4 70.02-8.95 71.69-10.5 72.49-12.2L72.49-12.2Q72.74-12.8 72.74-13.3L72.74-13.3Q72.74-13.95 72.49-14.1L72.49-14.1Q72.29-14.25 72.29-14.5L72.29-14.5Q72.29-14.95 72.74-14.95L72.74-14.95Q73.04-14.95 73.52-14.68 73.99-14.4 74.24-14.15L74.24-14.15Q74.84-13.55 75.02-12.65 75.19-11.75 75.19-10.8L75.19-10.8Q75.19-9.4 74.92-7.65 74.64-5.9 74.14-4.28 73.64-2.65 72.89-1.5L72.89-1.5 72.79-1.35Q73.09-1.55 73.32-1.73 73.54-1.9 73.64-2L73.64-2Q75.14-3.5 76.24-5.38 77.34-7.25 78.29-9.22 79.24-11.2 80.24-12.95 81.24-14.7 82.54-15.95L82.54-15.95Q83.29-16.7 84.49-16.7L84.49-16.7Q85.14-16.7 85.79-16.32 86.44-15.95 86.74-15.2L86.74-15.2Q86.84-15 86.67-14.95 86.49-14.9 86.39-15.1L86.39-15.1Q86.09-15.85 85.44-15.85L85.44-15.85Q84.79-15.85 83.74-14.9L83.74-14.9Q81.94-13.15 80.49-10.83 79.04-8.5 77.57-6.13 76.09-3.75 74.14-1.8L74.14-1.8Q73.34-1 72.04-0.5 70.74 0 69.74 0ZM85.09 0.05L85.09 0.05Q83.54 0.05 82.69-0.93 81.84-1.9 81.84-3.45L81.84-3.45Q81.84-4.9 82.62-6.65 83.39-8.4 85.09-10.2L85.09-10.2Q86.84-12.1 89.44-13.28 92.04-14.45 94.39-14.45L94.39-14.45Q96.29-14.45 97.64-13.63 98.99-12.8 99.44-11.55L99.44-11.55Q99.99-11.55 100.82-11.25 101.64-10.95 101.64-10.15L101.64-10.15Q101.64-9.6 101.09-8.9L101.09-8.9Q100.74-8.4 99.87-7.4 98.99-6.4 98.24-5.25L98.24-5.25Q97.64-4.35 97.29-3.58 96.94-2.8 96.94-2.25L96.94-2.25Q96.94-1.5 97.69-1.5L97.69-1.5Q98.54-1.5 100.24-2.45L100.24-2.45Q102.09-3.5 103.79-4.85 105.49-6.2 106.44-7L106.44-7Q106.69-7.2 106.79-7.2L106.79-7.2Q106.99-7.2 106.99-6.95L106.99-6.95Q106.99-6.65 106.74-6.4L106.74-6.4Q106.29-6 104.99-4.9 103.69-3.8 102.02-2.6 100.34-1.4 98.74-0.65L98.74-0.65Q97.94-0.3 97.27-0.13 96.59 0.05 96.04 0.05L96.04 0.05Q94.69 0.05 93.99-0.73 93.29-1.5 93.29-2.75L93.29-2.75Q93.29-3.25 93.44-3.8 93.59-4.35 93.79-4.9L93.79-4.9 94.14-5.75Q92.84-4.15 91.54-3.08 90.24-2 88.94-1.2L88.94-1.2Q87.84-0.55 86.87-0.25 85.89 0.05 85.09 0.05ZM86.64-1.25L86.64-1.25Q87.54-1.25 89.24-2.33 90.94-3.4 93.19-5.65L93.19-5.65Q93.49-5.95 94.32-6.73 95.14-7.5 96.09-8.47 97.04-9.45 97.72-10.43 98.39-11.4 98.39-12.05L98.39-12.05Q98.39-13 96.74-13L96.74-13Q95.29-13 93.27-11.88 91.24-10.75 89.39-8.55L89.39-8.55Q87.49-6.3 86.62-4.67 85.74-3.05 85.74-2.2L85.74-2.2Q85.74-1.25 86.64-1.25ZM109.44 0.85L109.44 0.85Q107.84 0.85 106.99-0.1 106.14-1.05 106.14-2.75L106.14-2.75Q106.14-4.35 106.99-6.5L106.99-6.5 107.09-6.75 106.19-5.9Q105.99-5.7 105.74-5.7L105.74-5.7Q105.49-5.7 105.49-5.9L105.49-5.9Q105.49-6.15 105.84-6.5L105.84-6.5Q107.14-7.65 108.51-8.93 109.89-10.2 110.84-11.35L110.84-11.35Q110.49-11.2 110.09-11.2L110.09-11.2Q109.69-11.2 109.49-11.4L109.49-11.4Q109.14-11.65 109.14-12.3L109.14-12.3Q109.14-12.85 109.66-13.45 110.19-14.05 111.84-14.5L111.84-14.5Q112.19-14.6 112.56-14.65 112.94-14.7 113.29-14.75L113.29-14.75Q114.89-17 116.09-18.93 117.29-20.85 117.99-21.5L117.99-21.5Q118.29-21.85 119.06-22.1 119.84-22.35 120.71-22.5 121.59-22.65 122.09-22.65L122.09-22.65Q123.74-22.65 123.74-22.35L123.74-22.35Q123.74-22.15 122.99-21.4L122.99-21.4Q121.74-20.2 120.06-18.43 118.39-16.65 116.64-14.6L116.64-14.6Q118.09-14.4 119.31-13.85 120.54-13.3 121.09-12.45L121.09-12.45Q121.29-12.2 121.29-11.85L121.29-11.85Q121.29-11.45 121.04-11.45L121.04-11.45Q120.84-11.45 120.59-11.7L120.59-11.7Q119.54-12.75 117.09-12.75L117.09-12.75Q116.59-12.75 116.06-12.7 115.54-12.65 114.99-12.55L114.99-12.55Q113.29-10.35 111.89-8.15 110.49-5.95 109.89-4.05L109.89-4.05Q109.59-3.15 109.59-2.4L109.59-2.4Q109.59-1.65 109.94-1.18 110.29-0.7 110.99-0.7L110.99-0.7Q111.44-0.7 112.09-0.95L112.09-0.95Q113.04-1.3 114.29-2.13 115.54-2.95 116.81-4 118.09-5.05 119.21-6.05 120.34-7.05 121.09-7.75 121.84-8.45 121.94-8.55L121.94-8.55Q122.09-8.7 122.19-8.7L122.19-8.7Q122.39-8.7 122.39-8.4L122.39-8.4Q122.39-8.05 122.09-7.75L122.09-7.75Q121.59-7.25 120.56-6.25 119.54-5.25 118.21-4.03 116.89-2.8 115.39-1.7 113.89-0.6 112.36 0.13 110.84 0.85 109.44 0.85ZM124.89 0.5L124.89 0.5Q122.69 0.5 121.21-0.58 119.74-1.65 119.74-3.7L119.74-3.7Q119.74-5.9 120.79-7.8 121.84-9.7 123.59-11.13 125.34-12.55 127.41-13.35 129.49-14.15 131.54-14.15L131.54-14.15Q133.59-14.15 134.59-13.43 135.59-12.7 135.59-11.65L135.59-11.65Q135.59-10.65 134.66-9.53 133.74-8.4 131.99-7.55L131.99-7.55Q130.89-7.05 129.46-6.68 128.04-6.3 126.99-6.3L126.99-6.3Q126.19-6.3 126.19-6.55L126.19-6.55Q126.19-6.75 126.89-6.75L126.89-6.75Q127.54-6.75 128.91-7.13 130.29-7.5 131.59-8.15L131.59-8.15Q133.04-8.95 133.64-9.75 134.24-10.55 134.24-11.2L134.24-11.2Q134.24-11.8 133.76-12.2 133.29-12.6 132.44-12.6L132.44-12.6Q131.64-12.6 130.64-12.15L130.64-12.15Q129.19-11.5 127.66-10.03 126.14-8.55 125.14-6.8 124.14-5.05 124.14-3.45L124.14-3.45Q124.14-2.35 124.76-1.6 125.39-0.85 126.64-0.85L126.64-0.85Q127.94-0.85 129.64-1.68 131.34-2.5 133.09-3.73 134.84-4.95 136.34-6.2 137.84-7.45 138.74-8.3L138.74-8.3Q139.04-8.6 139.19-8.6L139.19-8.6Q139.34-8.6 139.34-8.35L139.34-8.35Q139.34-8 139.04-7.75L139.04-7.75Q137.14-6 134.91-4.1 132.69-2.2 130.16-0.88 127.64 0.45 124.89 0.5ZM167.13 15.3L167.13 15.3Q164.68 15.3 162.36 14.58 160.03 13.85 158.18 12.28 156.33 10.7 155.23 8.15 154.13 5.6 154.13 2L154.13 2 154.13 1.8Q154.13 1.25 154.38 1.25L154.38 1.25Q154.73 1.25 154.83 1.9L154.83 1.9Q155.33 5.4 156.81 8.05 158.28 10.7 160.46 12.2 162.63 13.7 165.18 13.7L165.18 13.7Q167.88 13.7 170.33 12.2 172.78 10.7 174.98 8.3 177.18 5.9 179.11 3.23 181.03 0.55 182.58-1.85L182.58-1.85Q188.48-10.8 190.73-17.57 192.98-24.35 192.73-29.05L192.73-29.05Q191.93-26.3 190.33-23.05 188.73-19.8 186.68-16.57 184.63-13.35 182.48-10.65L182.48-10.65Q181.78-9.8 180.51-8.35 179.23-6.9 177.63-5.3 176.03-3.7 174.33-2.25 172.63-0.8 170.98 0.1 169.33 1 168.03 1L168.03 1Q167.88 1 167.73 1 167.58 1 167.43 0.95L167.43 0.95Q166.23 0.65 166.23-0.95L166.23-0.95Q166.23-2.25 166.88-4.1 167.53-5.95 168.61-8.15 169.68-10.35 170.93-12.63 172.18-14.9 173.38-16.95L173.38-16.95Q174.08-18.15 175.06-19.8 176.03-21.45 176.76-23.25 177.48-25.05 177.48-26.6L177.48-26.6Q177.48-28.2 176.33-29.23 175.18-30.25 172.23-30.25L172.23-30.25Q170.43-30.25 168.36-29.93 166.28-29.6 164.26-29.1 162.23-28.6 160.53-28.1 158.83-27.6 157.78-27.25L157.78-27.25Q155.23-26.35 153.41-25.33 151.58-24.3 151.58-23.3L151.58-23.3Q151.58-22.6 152.48-22L152.48-22 152.58-21.9Q152.58-21.85 152.38-21.85L152.38-21.85Q152.08-21.85 151.93-21.95L151.93-21.95Q150.83-22.7 150.83-24.15L150.83-24.15Q150.83-25.25 151.58-26.45 152.33-27.65 153.88-28.55L153.88-28.55Q156.48-30.05 159.86-31.13 163.23-32.2 166.71-32.8 170.18-33.4 173.03-33.4L173.03-33.4Q177.18-33.4 178.81-32.15 180.43-30.9 180.43-28.85L180.43-28.85Q180.43-27.05 179.48-24.85 178.53-22.65 177.18-20.35 175.83-18.05 174.63-16L174.63-16Q173.53-14.05 172.31-11.95 171.08-9.85 170.01-7.85 168.93-5.85 168.28-4.2 167.63-2.55 167.63-1.5L167.63-1.5Q167.63-0.85 167.93-0.45 168.23-0.05 168.93-0.05L168.93-0.05Q169.93-0.05 171.43-1.07 172.93-2.1 174.58-3.7 176.23-5.3 177.78-7.03 179.33-8.75 180.48-10.18 181.63-11.6 182.08-12.25L182.08-12.25Q185.58-17.3 188.26-21.9 190.93-26.5 192.08-30.35L192.08-30.35Q192.43-31.5 192.83-31.6L192.83-31.6Q193.03-31.7 193.13-31.7L193.13-31.7Q193.38-31.7 193.53-31.3L193.53-31.3Q194.03-29.95 194.26-28.33 194.48-26.7 194.48-24.85L194.48-24.85Q194.48-21.55 193.81-17.85 193.13-14.15 191.96-10.43 190.78-6.7 189.23-3.33 187.68 0.05 185.88 2.65L185.88 2.65Q183.48 6.15 180.46 9.03 177.43 11.9 174.06 13.6 170.68 15.3 167.13 15.3ZM197.73 0.45L197.73 0.45Q195.78 0.45 194.8-0.53 193.83-1.5 193.83-3.05L193.83-3.05Q193.83-4 194.08-4.9 194.33-5.8 194.63-6.5L194.63-6.5Q194.28-6.15 193.95-5.88 193.63-5.6 193.43-5.45L193.43-5.45Q193.23-5.3 193.08-5.3L193.08-5.3Q192.88-5.3 192.88-5.55L192.88-5.55Q192.88-5.9 193.38-6.35L193.38-6.35Q195.13-7.8 196.13-8.93 197.13-10.05 198.23-11L198.23-11Q200.08-12.6 202.18-13.5 204.28-14.4 206.38-14.4L206.38-14.4Q208.58-14.4 209.83-13.35 211.08-12.3 211.08-10.25L211.08-10.25Q211.08-9.1 210.4-7.6 209.73-6.1 208.28-4.5L208.28-4.5Q207.68-3.85 206.93-3.23 206.18-2.6 205.63-2.3L205.63-2.3Q208.08-2.55 210.23-4.03 212.38-5.5 214.08-6.95L214.08-6.95Q214.33-7.1 214.43-7.1L214.43-7.1Q214.68-7.1 214.68-6.85L214.68-6.85Q214.68-6.65 214.43-6.4L214.43-6.4Q212.28-4.35 209.8-2.95 207.33-1.55 204.33-1.6L204.33-1.6Q202.58-0.65 200.9-0.1 199.23 0.45 197.73 0.45ZM199.98-0.95L199.98-0.95Q200.68-0.95 201.48-1.2 202.28-1.45 203.08-1.85L203.08-1.85Q202.78-1.85 202.5-2.15 202.23-2.45 202.23-2.95L202.23-2.95Q202.23-3.95 202.98-5 203.73-6.05 204.83-6.8 205.93-7.55 206.98-7.55L206.98-7.55Q207.58-7.55 208.1-7.23 208.63-6.9 208.68-6.35L208.68-6.35Q209.53-7.3 209.85-8.4 210.18-9.5 210.18-10.45L210.18-10.45Q210.18-11.75 209.35-12.43 208.53-13.1 207.13-13.1L207.13-13.1Q205.78-13.1 204.15-12.15 202.53-11.2 201.1-9.7 199.68-8.2 198.75-6.45 197.83-4.7 197.83-3.1L197.83-3.1Q197.83-0.95 199.98-0.95ZM228.78 1.95L228.78 1.95Q228.13 1.7 227.5 1.05 226.88 0.4 226.88-1.2L226.88-1.2Q226.88-2.55 227.33-4.03 227.78-5.5 228.48-6.95L228.48-6.95Q227.18-5.3 225.65-3.7 224.13-2.1 222.6-1.07 221.08-0.05 219.78-0.05L219.78-0.05Q218.68-0.05 217.95-0.65 217.23-1.25 217.23-2.5L217.23-2.5Q217.23-3.4 217.58-4.45L217.58-4.45Q217.93-5.5 218.83-6.8 219.73-8.1 220.8-9.38 221.88-10.65 222.68-11.55L222.68-11.55Q223.23-12.2 223.23-12.6L223.23-12.6Q223.23-13.1 222.68-13.1L222.68-13.1Q222.08-13.1 220.98-12.3L220.98-12.3Q219.83-11.45 218.53-10.23 217.23-9 216.08-7.88 214.93-6.75 214.13-6.1L214.13-6.1Q213.98-5.95 213.83-5.95L213.83-5.95Q213.58-5.95 213.58-6.25L213.58-6.25Q213.58-6.5 214.03-6.9L214.03-6.9Q216.23-8.8 217.68-10.38 219.13-11.95 220.53-13.05L220.53-13.05Q221.28-13.65 222.08-13.93 222.88-14.2 223.58-14.2L223.58-14.2Q224.78-14.2 225.58-13.5 226.38-12.8 226.38-11.55L226.38-11.55Q226.38-10.6 225.88-9.55L225.88-9.55Q225.33-8.3 224.4-7.08 223.48-5.85 222.63-4.7L222.63-4.7Q221.98-3.75 221.68-3.15 221.38-2.55 221.38-2.25L221.38-2.25Q221.38-1.85 221.78-1.85L221.78-1.85Q222.18-1.85 222.93-2.3 223.68-2.75 224.48-3.45L224.48-3.45Q225.03-3.95 225.45-4.38 225.88-4.8 226.08-5L226.08-5Q227.23-6.2 228.38-7.58 229.53-8.95 230.38-10.1L230.38-10.1Q231.03-10.95 231.4-11.4 231.78-11.85 232.23-12.35L232.23-12.35Q233.08-13.3 234.03-13.35L234.03-13.35Q234.58-13.35 235.3-13.13 236.03-12.9 236.73-12.25L236.73-12.25Q236.23-11.55 235.25-10.33 234.28-9.1 233.15-7.63 232.03-6.15 231-4.6 229.98-3.05 229.33-1.7 228.68-0.35 228.68 0.65L228.68 0.65Q228.68 1.35 229.08 1.75L229.08 1.75Q229.28 1.95 229.08 1.98 228.88 2 228.78 1.95ZM243.77 0.05L243.77 0.05Q241.62 0.05 240.87-0.78 240.12-1.6 240.12-2.6L240.12-2.6Q240.12-3.9 241.12-5.35L241.12-5.35Q241.72-6.2 242.47-7.28 243.22-8.35 243.87-9.3 244.52-10.25 244.77-10.65L244.77-10.65Q245.12-11.15 245.2-11.33 245.27-11.5 245.27-11.7L245.27-11.7Q245.27-12 244.9-12.28 244.52-12.55 243.67-12.55L243.67-12.55Q243.42-12.55 243.25-12.53 243.07-12.5 242.87-12.5L242.87-12.5Q242.47-12.5 242.42-12.55L242.42-12.55 242.27-12.35Q240.87-10.5 239.27-8.72 237.67-6.95 235.77-5.45L235.77-5.45Q235.57-5.3 235.47-5.3L235.47-5.3Q235.27-5.3 235.27-5.5L235.27-5.5Q235.27-5.9 235.87-6.4L235.87-6.4Q237.42-7.7 238.92-9.33 240.42-10.95 241.62-12.75L241.62-12.75Q241.17-13.05 241.17-13.95L241.17-13.95Q241.17-15.3 242.02-16.85L242.02-16.85Q242.62-17.9 243.35-18.43 244.07-18.95 244.62-18.95L244.62-18.95Q245.67-18.95 245.67-17.7L245.67-17.7Q245.67-16.9 245.07-15.7L245.07-15.7Q244.82-15.1 244.1-14.18 243.37-13.25 242.67-12.85L242.67-12.85Q243.72-13.2 245.35-13.33 246.97-13.45 248.07-13.45L248.07-13.45Q248.72-13.45 249.67-13.08 250.62-12.7 250.62-11.75L250.62-11.75Q250.62-11.1 250.02-10.35L250.02-10.35Q249.87-10.15 249.22-9.4 248.57-8.65 247.8-7.6 247.02-6.55 246.37-5.5L246.37-5.5Q245.72-4.55 245.35-3.75 244.97-2.95 244.97-2.4L244.97-2.4Q244.97-1.6 245.87-1.6L245.87-1.6Q246.92-1.6 248.67-2.6 250.42-3.6 252.45-5.18 254.47-6.75 256.17-8.45L256.17-8.45Q256.37-8.65 256.52-8.65L256.52-8.65Q256.72-8.65 256.72-8.4L256.72-8.4Q256.72-8.1 256.47-7.85L256.47-7.85Q254.72-6.1 252.6-4.28 250.47-2.45 248.2-1.2 245.92 0.05 243.77 0.05ZM279.52 1.65L279.52 1.65Q277.87 1.7 275.87 1.38 273.87 1.05 271.97 0.25 270.07-0.55 268.67-1.85 267.27-3.15 266.77-5.05L266.77-5.05Q268.57-3.45 271.67-2.73 274.77-2 277.97-2L277.97-2Q282.22-2 285.37-2.95L285.37-2.95Q286.27-3.2 287.47-3.78 288.67-4.35 289.82-5.13 290.97-5.9 291.74-6.85 292.52-7.8 292.52-8.8L292.52-8.8Q292.52-9.5 292.07-10.15 291.62-10.8 290.62-11.45L290.62-11.45Q290.02-11.8 288.89-12.23 287.77-12.65 286.47-13.23 285.17-13.8 284.02-14.58 282.87-15.35 282.19-16.43 281.52-17.5 281.67-18.9L281.67-18.9Q281.92-20.95 283.54-22.98 285.17-25 287.64-26.78 290.12-28.55 292.99-29.9 295.87-31.25 298.64-32.02 301.42-32.8 303.57-32.8L303.57-32.8Q305.77-32.8 307.34-31.95 308.92-31.1 308.67-29.05L308.67-29.05Q308.57-28.15 307.44-26.9 306.32-25.65 304.77-24.15 303.22-22.65 301.69-21 300.17-19.35 299.19-17.65 298.22-15.95 298.32-14.35L298.32-14.35Q297.52-15 297.14-15.8 296.77-16.6 296.77-17.45L296.77-17.45Q296.77-18.65 297.27-19.9 297.77-21.15 298.52-22.28 299.27-23.4 299.92-24.2L299.92-24.2Q301.07-25.6 302.52-26.85 303.97-28.1 305.47-29.15L305.47-29.15Q305.02-29.8 303.92-29.8L303.92-29.8Q302.77-29.8 301.34-29.3 299.92-28.8 298.69-28.23 297.47-27.65 296.97-27.35L296.97-27.35Q294.82-26.2 292.64-24.75 290.47-23.3 288.64-21.8 286.82-20.3 285.69-19.03 284.57-17.75 284.47-16.9L284.47-16.9Q284.37-15.85 285.37-15.13 286.37-14.4 287.97-13.8 289.57-13.2 291.12-12.4L291.12-12.4Q293.22-11.35 294.17-10 295.12-8.65 295.12-7.2L295.12-7.2Q295.12-5.4 293.77-3.68 292.42-1.95 290.12-0.8L290.12-0.8Q288.07 0.2 285.84 0.75 283.62 1.3 281.89 1.48 280.17 1.65 279.52 1.65ZM299.97 0.85L299.97 0.85Q298.37 0.85 297.52-0.1 296.67-1.05 296.67-2.75L296.67-2.75Q296.67-4.35 297.52-6.5L297.52-6.5 297.62-6.75 296.72-5.9Q296.52-5.7 296.27-5.7L296.27-5.7Q296.02-5.7 296.02-5.9L296.02-5.9Q296.02-6.15 296.37-6.5L296.37-6.5Q297.67-7.65 299.04-8.93 300.42-10.2 301.37-11.35L301.37-11.35Q301.02-11.2 300.62-11.2L300.62-11.2Q300.22-11.2 300.02-11.4L300.02-11.4Q299.67-11.65 299.67-12.3L299.67-12.3Q299.67-12.85 300.19-13.45 300.72-14.05 302.37-14.5L302.37-14.5Q302.72-14.6 303.09-14.65 303.47-14.7 303.82-14.75L303.82-14.75Q305.42-17 306.62-18.93 307.82-20.85 308.52-21.5L308.52-21.5Q308.82-21.85 309.59-22.1 310.37-22.35 311.24-22.5 312.12-22.65 312.62-22.65L312.62-22.65Q314.27-22.65 314.27-22.35L314.27-22.35Q314.27-22.15 313.52-21.4L313.52-21.4Q312.27-20.2 310.59-18.43 308.92-16.65 307.17-14.6L307.17-14.6Q308.62-14.4 309.84-13.85 311.07-13.3 311.62-12.45L311.62-12.45Q311.82-12.2 311.82-11.85L311.82-11.85Q311.82-11.45 311.57-11.45L311.57-11.45Q311.37-11.45 311.12-11.7L311.12-11.7Q310.07-12.75 307.62-12.75L307.62-12.75Q307.12-12.75 306.59-12.7 306.07-12.65 305.52-12.55L305.52-12.55Q303.82-10.35 302.42-8.15 301.02-5.95 300.42-4.05L300.42-4.05Q300.12-3.15 300.12-2.4L300.12-2.4Q300.12-1.65 300.47-1.18 300.82-0.7 301.52-0.7L301.52-0.7Q301.97-0.7 302.62-0.95L302.62-0.95Q303.57-1.3 304.82-2.13 306.07-2.95 307.34-4 308.62-5.05 309.74-6.05 310.87-7.05 311.62-7.75 312.37-8.45 312.47-8.55L312.47-8.55Q312.62-8.7 312.72-8.7L312.72-8.7Q312.92-8.7 312.92-8.4L312.92-8.4Q312.92-8.05 312.62-7.75L312.62-7.75Q312.12-7.25 311.09-6.25 310.07-5.25 308.74-4.03 307.42-2.8 305.92-1.7 304.42-0.6 302.89 0.13 301.37 0.85 299.97 0.85ZM307.16 13.45L307.16 13.45Q304.76 13.45 302.74 12.73 300.71 12 299.36 10.45L299.36 10.45Q298.01 8.9 297.56 6.3L297.56 6.3Q297.46 5.9 297.76 5.9L297.76 5.9Q297.96 5.9 298.06 6.25L298.06 6.25Q298.61 9.05 300.79 10.8 302.96 12.55 305.76 12.55L305.76 12.55Q308.36 12.55 311.01 11.18 313.66 9.8 316.16 7.43 318.66 5.05 320.86 2.05L320.86 2.05Q323.21-1.15 325.14-4.6 327.06-8.05 328.86-11.55L328.86-11.55Q328.21-10.6 327.51-9.6 326.81-8.6 326.11-7.75L326.11-7.75Q324.76-6.05 323.04-4.28 321.31-2.5 319.61-1.28 317.91-0.05 316.51-0.05L316.51-0.05Q315.41-0.05 314.69-0.65 313.96-1.25 313.96-2.5L313.96-2.5Q313.96-3.6 314.36-4.53 314.76-5.45 315.26-6.25L315.26-6.25Q316.11-7.65 317.31-9.1 318.51-10.55 319.41-11.55L319.41-11.55Q319.96-12.2 319.96-12.6L319.96-12.6Q319.96-13.1 319.41-13.1L319.41-13.1Q318.76-13.1 317.76-12.3L317.76-12.3Q316.56-11.45 315.31-10.28 314.06-9.1 312.96-8.05 311.86-7 311.16-6.4L311.16-6.4Q310.81-6.15 310.66-6.15L310.66-6.15Q310.46-6.15 310.46-6.35L310.46-6.35Q310.46-6.65 310.81-6.95L310.81-6.95Q311.81-7.8 312.94-8.95 314.06-10.1 315.19-11.23 316.31-12.35 317.26-13.05L317.26-13.05Q318.01-13.65 318.81-13.93 319.61-14.2 320.31-14.2L320.31-14.2Q321.51-14.2 322.34-13.5 323.16-12.8 323.16-11.55L323.16-11.55Q323.16-10.6 322.66-9.55L322.66-9.55Q322.06-8.3 321.14-7.08 320.21-5.85 319.36-4.7L319.36-4.7Q318.71-3.75 318.41-3.15 318.11-2.55 318.11-2.3L318.11-2.3Q318.11-1.85 318.51-1.85L318.51-1.85Q318.91-1.85 319.69-2.3 320.46-2.75 321.26-3.45L321.26-3.45Q322.61-4.7 324.24-6.53 325.86-8.35 327.41-10.35 328.96-12.35 330.11-14.05L330.11-14.05Q330.81-15.7 331.61-16.95 332.41-18.2 333.66-18.2L333.66-18.2Q334.36-18.2 334.79-17.8 335.21-17.4 335.21-17L335.21-17Q335.21-16.65 334.91-16.43 334.61-16.2 333.91-16.25L333.91-16.25Q333.36-16.35 332.66-16.05 331.96-15.75 331.21-14.15L331.21-14.15Q330.41-12.35 329.69-9.95 328.96-7.55 327.96-4.8 326.96-2.05 325.34 0.88 323.71 3.8 321.01 6.65L321.01 6.65Q318.36 9.45 314.74 11.45 311.11 13.45 307.16 13.45ZM337.36 0.25L337.36 0.25Q335.36 0.25 334.56-0.73 333.76-1.7 333.76-3L333.76-3Q333.76-4.25 334.24-5.65 334.71-7.05 335.31-8.3L335.31-8.3Q334.66-7.6 334.06-7.03 333.46-6.45 333.06-6.1L333.06-6.1Q332.86-5.95 332.66-5.95L332.66-5.95Q332.41-5.95 332.41-6.2L332.41-6.2Q332.41-6.45 332.71-6.65L332.71-6.65Q333.76-7.55 335.16-9.1 336.56-10.65 337.76-12.25L337.76-12.25Q338.76-13.55 340.16-15.5 341.56-17.45 343.01-19.63 344.46-21.8 345.51-23.6L345.51-23.6Q345.66-23.9 345.84-24.35 346.01-24.8 346.01-25.15L346.01-25.15Q346.01-25.65 345.61-25.65L345.61-25.65Q345.51-25.65 345.04-25.45 344.56-25.25 344.11-25.05 343.66-24.85 343.56-24.85L343.56-24.85Q343.16-24.85 343.61-25.3L343.61-25.3Q344.41-25.9 345.64-26.48 346.86-27.05 348.16-27.45 349.46-27.85 350.36-27.85L350.36-27.85Q352.46-27.85 352.46-26.5L352.46-26.5Q352.46-25.8 351.81-24.65L351.81-24.65Q351.26-23.75 350.21-22.53 349.16-21.3 347.89-19.93 346.61-18.55 345.41-17.23 344.21-15.9 343.41-14.9L343.41-14.9Q343.21-14.65 342.44-13.6 341.66-12.55 340.69-11.08 339.71-9.6 338.74-7.98 337.76-6.35 337.14-4.88 336.51-3.4 336.51-2.4L336.51-2.4Q336.51-1.05 337.81-1.05L337.81-1.05Q338.66-1.05 339.96-1.55L339.96-1.55Q341.21-2 342.59-2.93 343.96-3.85 345.29-4.9 346.61-5.95 347.64-6.9 348.66-7.85 349.16-8.35L349.16-8.35Q349.46-8.65 349.66-8.65L349.66-8.65Q349.86-8.65 349.86-8.4L349.86-8.4Q349.86-8.15 349.61-7.9L349.61-7.9Q348.81-7.05 347.44-5.7 346.06-4.35 344.39-2.98 342.71-1.6 340.91-0.68 339.11 0.25 337.36 0.25ZM352.31 0.5L352.31 0.5Q350.11 0.5 348.63-0.58 347.16-1.65 347.16-3.7L347.16-3.7Q347.16-5.9 348.21-7.8 349.26-9.7 351.01-11.13 352.76-12.55 354.83-13.35 356.91-14.15 358.96-14.15L358.96-14.15Q361.01-14.15 362.01-13.43 363.01-12.7 363.01-11.65L363.01-11.65Q363.01-10.65 362.08-9.53 361.16-8.4 359.41-7.55L359.41-7.55Q358.31-7.05 356.88-6.68 355.46-6.3 354.41-6.3L354.41-6.3Q353.61-6.3 353.61-6.55L353.61-6.55Q353.61-6.75 354.31-6.75L354.31-6.75Q354.96-6.75 356.33-7.13 357.71-7.5 359.01-8.15L359.01-8.15Q360.46-8.95 361.06-9.75 361.66-10.55 361.66-11.2L361.66-11.2Q361.66-11.8 361.18-12.2 360.71-12.6 359.86-12.6L359.86-12.6Q359.06-12.6 358.06-12.15L358.06-12.15Q356.61-11.5 355.08-10.03 353.56-8.55 352.56-6.8 351.56-5.05 351.56-3.45L351.56-3.45Q351.56-2.35 352.18-1.6 352.81-0.85 354.06-0.85L354.06-0.85Q355.36-0.85 357.06-1.68 358.76-2.5 360.51-3.73 362.26-4.95 363.76-6.2 365.26-7.45 366.16-8.3L366.16-8.3Q366.46-8.6 366.61-8.6L366.61-8.6Q366.76-8.6 366.76-8.35L366.76-8.35Q366.76-8 366.46-7.75L366.46-7.75Q364.56-6 362.33-4.1 360.11-2.2 357.58-0.88 355.06 0.45 352.31 0.5Z" opacity="1" transform="matrix(1,0,0,1,0,0)" fill="black" class="slogan-text-1" id="SvgjsPath2214"></path></svg></g></svg></g></svg></g></svg></g><g transform="matrix(1,0,0,1,0,0.29868409689720465)"><svg viewBox="0 0 114.06267765949083 119.47363875888053" height="119.47363875888053" width="114.06267765949083"><g><svg xmlns="http://www.w3.org/2000/svg" xml:space="preserve" version="1.0" viewBox="0 0 95.471 100" id="SvgjsSvg2213" width="114.06267765949083" height="119.47363875888053" x="0" y="0" class="icon-icon-0" data-fill-palette-color="accent"><path d="M47.735 0c-0.083 2.825-1.738 13.412-19.799 30.934C10.554 47.797 2.439 49.824 0 50c2.439 0.178 10.554 2.204 27.936 19.066C45.997 86.589 47.652 97.177 47.735 100c0.083-2.823 1.739-13.411 19.798-30.934C84.917 52.204 93.031 50.178 95.471 50c-2.439-0.176-10.554-2.203-27.938-19.066C49.475 13.412 47.819 2.825 47.735 0" fill="black"></path></svg></g></svg></g></svg></g><defs><mask></mask></defs></svg><rect width="395.52" height="86.38803823866986" fill="black" stroke="none" visibility="hidden"></rect></g></mask></svg><rect width="395.52" height="86.38803823866986" fill="black" stroke="none" visibility="hidden"></rect></g></mask><linearGradient x1="0.054" x2="0.941" y1="0.5" y2="0.5" id="df5af89b-3e5d-438d-b7a2-612953ff2283"><stop stop-color="#0f3054" offset="0"></stop><stop stop-color="#3b8dcb" offset="0.498"></stop><stop stop-color="#0f3054" offset="1"></stop></linearGradient><rect width="395.52" height="86.38803823866986" fill="url(#df5af89b-3e5d-438d-b7a2-612953ff2283)" mask="url(#3c554d26-3e2b-4f3d-8c80-84ca54353cf3)" data-fill-palette-color="secondary"></rect></svg><rect width="395.52" height="86.38803823866986" fill="none" stroke="none" visibility="hidden"></rect></g></svg></g></svg>